<?xml version="1.0" encoding="UTF-8" standalone="no"?>
<!-- Created with Inkscape (http://www.inkscape.org/) -->

<svg
   xmlns:dc="http://purl.org/dc/elements/1.1/"
   xmlns:cc="http://creativecommons.org/ns#"
   xmlns:rdf="http://www.w3.org/1999/02/22-rdf-syntax-ns#"
   xmlns:svg="http://www.w3.org/2000/svg"
   xmlns="http://www.w3.org/2000/svg"
   xmlns:sodipodi="http://sodipodi.sourceforge.net/DTD/sodipodi-0.dtd"
   xmlns:inkscape="http://www.inkscape.org/namespaces/inkscape"
   id="svg2"
   version="1.1"
   inkscape:version="0.48.2 r9819"
   width="500"
   height="500"
   sodipodi:docname="owsla.png">
  <metadata
     id="metadata8">
    <rdf:RDF>
      <cc:Work
         rdf:about="">
        <dc:format>image/svg+xml</dc:format>
        <dc:type
           rdf:resource="http://purl.org/dc/dcmitype/StillImage" />
        <dc:title></dc:title>
      </cc:Work>
    </rdf:RDF>
  </metadata>
  <defs
     id="defs6" />
  <sodipodi:namedview
     pagecolor="#ffffff"
     bordercolor="#666666"
     borderopacity="1"
     objecttolerance="10"
     gridtolerance="10"
     guidetolerance="10"
     inkscape:pageopacity="0"
     inkscape:pageshadow="2"
     inkscape:window-width="640"
     inkscape:window-height="480"
     id="namedview4"
     showgrid="false"
     inkscape:zoom="0.472"
     inkscape:cx="250"
     inkscape:cy="250"
     inkscape:window-x="0"
     inkscape:window-y="0"
     inkscape:window-maximized="0"
     inkscape:current-layer="svg2" />
  <g
     id="g3023">
    <path
       style="fill:#cfcfcf"
       d="M 0,250 0,0 l 250,0 250,0 0,250 0,250 -250,0 -250,0 0,-250 z m 159.46523,133.25 c 9.77784,-21.5875 18.06069,-39.24894 18.40633,-39.24764 0.34564,10e-4 4.83495,1.81715 9.97623,4.03522 18.49245,7.97808 30.93713,11.22536 49.82442,13.00103 23.63068,2.22162 49.09792,-2.06042 72.6155,-12.2095 6.48324,-2.79786 12.04364,-4.83109 12.35645,-4.51828 0.31281,0.31281 5.51604,11.50834 11.56273,24.87896 6.04669,13.37061 13.4654,29.71021 16.48602,36.31021 3.02062,6.6 7.58792,16.725 10.14956,22.5 l 4.65753,10.5 0.25717,-65.69566 0.25717,-65.69565 5.97352,-8.30435 c 6.95531,-9.66923 16.89936,-29.04865 20.42457,-39.80434 5.3736,-16.39529 6.97759,-27.1306 7.02237,-47 0.0461,-20.44641 -1.1785,-28.93133 -6.63369,-45.96372 -7.77569,-24.27756 -21.80631,-46.52712 -40.0756,-63.55134 -8.91238,-8.30499 -20.24515,-16.818273 -22.38827,-16.818273 -0.73548,0 -1.1151,-0.222138 -0.8436,-0.493639 0.75221,-0.752211 -2.43746,-2.725555 -12.14734,-7.515159 C 301.43864,69.811079 287.2642,65.391361 270.12654,62.934322 256.92323,61.041354 230.01526,62.257373 217,65.335204 c -12.80346,3.027744 -26.76069,8.013177 -31.56917,11.2763 -1.96348,1.332455 -3.24707,1.900182 -2.85241,1.261618 0.39465,-0.638565 -0.67457,-0.338681 -2.37605,0.666409 -1.70148,1.005089 -2.82355,2.264397 -2.49348,2.798461 0.33956,0.549424 0.0789,0.648873 -0.60041,0.22905 -2.53206,-1.564895 -25.88335,15.98067 -36.64008,27.530418 -24.56064,26.37132 -38.5415,59.77351 -40.14637,95.91524 -1.508842,33.97909 7.71771,65.41766 27.33121,93.1284 l 6.32039,8.9297 0.11451,65.7146 0.11451,65.7146 3.74234,-8 c 2.05829,-4.4 11.7424,-25.6625 21.52024,-47.25 z M 140,363.5 c 0,-26.675 0.26395,-48.5 0.58655,-48.5 0.32261,0 3.36011,2.63796 6.75,5.86214 8.31654,7.90998 15.60244,13.2936 16.90301,12.4898 0.61267,-0.37865 0.77957,-0.19191 0.39075,0.43722 -0.39717,0.64263 1.19799,2.19799 3.84549,3.74953 2.48831,1.45824 4.5242,2.7713 4.5242,2.91791 0,0.1466 -1.74207,4.04134 -3.87126,8.65498 -10.3201,22.36204 -12.20898,26.94957 -11.5412,28.03006 0.41035,0.66396 0.28982,0.9006 -0.27948,0.54875 -0.56731,-0.35061 -4.38412,6.94755 -8.80992,16.84549 C 144.20322,404.14115 140.53412,412 140.3446,412 140.15507,412 140,390.175 140,363.5 z m 214.05584,36.75 c -2.9233,-6.4625 -8.46108,-18.725 -12.30618,-27.25 -3.84511,-8.525 -8.7632,-19.325 -10.92909,-24 -3.56835,-7.70215 -3.77908,-8.59386 -2.24497,-9.5 5.19455,-3.06821 19.20087,-13.93705 24.87084,-19.29967 l 6.55356,-6.1983 0,48.99898 C 360,389.95046 359.85846,412 359.68546,412 c -0.173,0 -2.70633,-5.2875 -5.62962,-11.75 z M 227,354.51042 c -22.84867,-3.91333 -44.06206,-12.80161 -62.40205,-26.14609 -3.24612,-2.36193 -6.35315,-4.01562 -6.90451,-3.67487 -0.55135,0.34076 -0.70672,0.14105 -0.34527,-0.4438 0.36146,-0.58485 -0.80651,-2.24749 -2.59549,-3.69476 -4.93086,-3.98905 -8.6376,-7.65433 -11.9462,-11.81259 l -2.99306,-3.76169 39.13974,0.26169 39.13975,0.26169 10.03298,22 c 5.51814,12.1 10.64927,23.4625 11.40252,25.25 l 1.36954,3.25 -3.19898,-0.10252 C 235.93954,355.84109 231.125,355.21691 227,354.51042 z m 18.1926,-2.20084 c -1.04987,-2.09527 -4.96395,-10.65769 -8.69797,-19.0276 -3.86946,-8.67351 -7.22229,-14.95029 -7.79638,-14.59549 -0.554,0.34239 -0.70497,0.1334 -0.33549,-0.46443 0.36947,-0.59782 -0.461,-3.64834 -1.84549,-6.77894 C 225.13277,308.31253 224,305.58213 224,305.37557 224,305.16901 235.7,305 250,305 c 14.3,0 25.9677,0.3375 25.92823,0.75 -0.0395,0.4125 -5.12202,11.775 -11.29455,25.25 -10.99181,23.9958 -11.28769,24.50637 -14.37751,24.80958 -2.77794,0.2726 -3.38272,-0.14543 -5.06357,-3.5 z m 15.23285,0.56994 C 261.21284,351.02078 266.3713,339.6 271.88869,327.5 l 10.03163,-22 39.03984,-0.26161 C 342.43207,305.09451 360,305.18745 360,305.44494 c 0,0.25748 -1.76784,2.38271 -3.92854,4.72272 -2.16069,2.34002 -3.66355,4.72208 -3.33967,5.29346 0.32387,0.57138 0.22062,0.70528 -0.22946,0.29756 -1.05251,-0.95349 -3.66153,1.17471 -2.91699,2.3794 0.30983,0.50131 0.19237,0.82888 -0.26101,0.72794 -1.69593,-0.3776 -4.28849,1.38616 -3.65826,2.48876 0.36002,0.62987 0.29409,0.81938 -0.14651,0.42112 -0.44059,-0.39825 -3.55024,1.41692 -6.91032,4.03371 -3.36008,2.6168 -8.80924,6.52825 -12.10924,8.69213 -5.40384,3.54341 -8.09106,4.96381 -18.8313,9.95378 -9.84214,4.57271 -29.26586,9.66118 -42.42179,11.11331 l -6.25309,0.6902 1.43163,-3.37951 z M 249.61849,299 l -28.88152,-0.5 -7.0689,-15.68515 c -3.8879,-8.62683 -7.49825,-15.4198 -8.023,-15.09549 -0.52475,0.32431 -0.65812,0.11078 -0.29639,-0.47451 0.66949,-1.08327 -0.40502,-3.91316 -6.54788,-17.24485 -1.90068,-4.125 -8.78043,-19.29454 -15.28835,-33.7101 -6.50791,-14.41555 -12.20538,-25.97968 -12.66105,-25.69806 -0.45567,0.28162 -0.53217,-0.26016 -0.17001,-1.20395 0.48212,-1.25638 0.30375,-1.49674 -0.66596,-0.89743 -0.8708,0.53819 -1.08533,0.43166 -0.62633,-0.31102 0.97144,-1.57182 -6.35159,-18.32066 -7.65741,-17.51361 -0.58184,0.35959 -0.74395,0.16302 -0.36767,-0.44582 0.37018,-0.59895 -0.68529,-4.05475 -2.34549,-7.67955 C 157.35834,158.91566 156,155.7763 156,155.56409 c 0,-0.2122 -1.53838,-3.68843 -3.41862,-7.72496 C 150.70113,143.80261 146.88992,135.55 144.11202,129.5 l -5.05073,-11 8.71936,-8.78068 c 9.63625,-9.70403 20.77076,-18.332122 30.71367,-23.799925 3.58112,-1.969333 6.30634,-3.785405 6.05603,-4.035715 -0.25031,-0.25031 0.31096,-0.507616 1.24727,-0.571792 0.93631,-0.06418 5.97738,-1.897342 11.20238,-4.073701 29.5534,-12.309819 64.22787,-13.427538 98.03148,-3.160008 15.39412,4.67582 38.06142,17.756425 50.55169,29.171831 4.81729,4.40273 5.64166,4.81746 7.1795,3.61192 1.58232,-1.24042 1.61121,-1.20137 0.32375,0.43764 -1.27318,1.62083 -0.95555,2.26644 3.19794,6.5 l 4.61152,4.70043 -9.93654,21.86393 c -5.4651,12.02516 -9.64715,22.33219 -9.29344,22.90451 0.35372,0.57232 0.211,0.77352 -0.31713,0.44711 -1.22191,-0.75518 -12.62215,25.03309 -11.71516,26.50063 0.37147,0.60106 0.2282,0.81645 -0.31838,0.47865 -0.56418,-0.34869 -10.2228,19.7938 -22.34321,46.59549 C 295.22983,263.25564 284.02,287.875 282.06129,292 L 278.5,299.5 249.61849,299 z M 140.06395,216.25 c 0.0559,-72.384 0.24245,-82.37419 1.48878,-79.75 2.21993,4.6741 18.23986,39.92602 22.94929,50.5 7.94233,17.83275 42.6574,94.47886 46.58265,102.8481 2.15343,4.59145 3.91533,8.52895 3.91533,8.75 0,0.22104 -16.875,0.4019 -37.5,0.4019 l -37.5,0 0.064,-82.75 z m 144.55449,81.19806 c -0.32754,-0.85356 -0.19754,-1.30597 0.28888,-1.00534 0.48643,0.30063 6.84027,-12.6135 14.11964,-28.69806 7.27937,-16.08456 14.25711,-31.49466 15.50608,-34.24466 1.24897,-2.75 6.3138,-14 11.25518,-25 4.94137,-11 10.64944,-23.6 12.6846,-28 2.03516,-4.4 7.55288,-16.55 12.2616,-27 4.70872,-10.45 8.71977,-19.1875 8.91344,-19.41667 0.19368,-0.22916 0.35214,36.78334 0.35214,82.25 L 360,299 l -37.39301,0 c -32.87192,0 -37.46502,-0.18764 -37.98855,-1.55194 z M 366,212.20402 C 366,164.24181 366.18121,125 366.4027,125 c 0.8173,0 11.7902,19.13806 15.02297,26.20188 9.23712,20.18374 12.88867,37.08434 12.92001,59.79812 0.0418,30.32462 -6.73577,53.43685 -23.73958,80.95402 l -4.6061,7.45401 0,-87.20401 z m -234.43206,84.68605 c 0.26398,-0.42712 -1.32142,-3.71969 -3.5231,-7.31682 C 115.2705,268.70246 108.40688,248.8215 105.92446,225.5 c -3.36627,-31.62494 5.56121,-67.10828 23.92181,-95.0801 l 3.65373,-5.56634 0.5,5.32322 c 0.275,2.92777 0.38232,41.81072 0.23848,86.40655 -0.22545,69.90196 -0.46071,81.08334 -1.70601,81.08334 -0.79447,0 -1.22851,-0.34947 -0.96453,-0.7766 z m 61.60332,139.45494 c 1.45545,-1.31717 1.82874,-3.15426 1.82874,-9 C 195,420.21346 194.9287,420 192.54569,420 c -2.3295,0 -2.46935,0.33749 -2.75,6.63662 l -0.29569,6.63663 -5.5,0 -5.5,0 -0.29569,-6.63663 C 177.92019,420.25961 177.80847,420 175.34843,420 l -2.5602,0 0.36522,8.04224 c 0.26028,5.73148 0.79353,8.31304 1.85588,8.98469 0.81987,0.51834 4.83024,0.94934 8.91193,0.95776 5.51838,0.0114 7.89016,-0.40904 9.25,-1.63968 z M 218.89249,435.75 c 0.46365,-1.2375 1.16333,-5.2875 1.55484,-9 l 0.71186,-6.75 -4.21769,0 -4.21769,0 0.6868,6.75 c 0.92336,9.07499 1.54639,11.25 3.22255,11.25 0.77899,0 1.79569,-1.0125 2.25933,-2.25 z m 16.51812,-4.5 c 0.37774,-3.7125 0.93866,-7.7625 1.2465,-9 0.52122,-2.09527 0.23419,-2.25 -4.1737,-2.25 -4.63003,0 -4.72143,0.0601 -4.1849,2.75 0.30168,1.5125 0.86606,5.5625 1.25417,9 0.63111,5.5898 0.9415,6.25 2.93839,6.25 2.02197,0 2.29757,-0.6372 2.91954,-6.75 z m 37.03269,4.52749 c 1.55895,-2.22571 2.15042,-11.0667 0.94971,-14.1957 -0.33384,-0.86999 -1.57134,-1.58273 -2.75,-1.58389 -2.00551,-0.002 -2.12149,0.4151 -1.80768,6.5 l 0.33532,6.5021 -5.08532,0 C 259.14972,433 259,432.91528 259,430.12244 c 0,-2.46858 -2.97309,-6.90053 -3.01531,-4.49488 C 255.97627,426.1074 255.53316,425.825 255,425 c -0.6938,-1.07357 -0.97373,-0.004 -0.98469,3.76357 -0.0237,8.16184 1.10112,9.23643 9.66853,9.23643 6.3095,0 7.39581,-0.27562 8.75946,-2.22251 z M 302,435.5 c 0,-2.37705 -0.28277,-2.4999 -5.75,-2.4979 l -5.75,0.002 0.33533,-6.5021 c 0.33071,-6.4126 0.29974,-6.5021 -2.25,-6.5021 -2.57361,0 -2.58533,0.0378 -2.58533,8.33333 0,4.58334 0.3,8.63334 0.66667,9 0.36666,0.36667 3.96666,0.66667 8,0.66667 7.15555,0 7.33333,-0.0606 7.33333,-2.5 z m 14.01999,1.75 c 0.011,-0.4125 0.62366,-4.4625 1.36147,-9 l 1.34147,-8.25 -2.25305,0 c -2.44168,0 -2.8702,1.02231 -3.98218,9.5 -0.3607,2.75 -0.87332,5.7875 -1.13915,6.75 -0.36947,1.33775 0.12147,1.75 2.08406,1.75 1.41207,0 2.57639,-0.3375 2.58738,-0.75 z m 15.63146,-1 c -0.26583,-0.9625 -0.77845,-4 -1.13915,-6.75 -1.1329,-8.63725 -1.51325,-9.5 -4.1881,-9.5 -1.86353,0 -2.33927,0.42376 -1.96464,1.75 0.27189,0.9625 0.7763,3.775 1.12092,6.25 1.32662,9.52762 1.52343,10 4.16636,10 1.88692,0 2.37118,-0.42275 2.00461,-1.75 z M 178,395.5 l 0,-6.5 6,0 6,0 0,6.5 c 0,6.30253 0.0776,6.5 2.55282,6.5 2.51896,0 2.55043,-0.0962 2.37222,-7.25 C 194.67815,384.83859 193.81824,384 183.90172,384 174.14117,384 173,385.17474 173,395.22251 c 0,6.56266 0.0793,6.77749 2.5,6.77749 2.41026,0 2.5,-0.23333 2.5,-6.5 z m 36.61754,4.75 c -0.28448,-0.9625 -0.82295,-5.0125 -1.1966,-9 -0.6452,-6.88547 -0.80506,-7.25 -3.17932,-7.25 -2.47521,0 -2.49297,0.0618 -1.7943,6.25 1.22916,10.88667 1.54107,11.75 4.24507,11.75 1.85646,0 2.3183,-0.41982 1.92515,-1.75 z M 229,400.45751 c 0,-0.7567 -0.5047,-4.7692 -1.12156,-8.91666 C 226.86631,384.73578 226.53871,384 224.52089,384 c -1.98477,0 -2.30441,0.64599 -2.84509,5.75 -0.33501,3.1625 -0.89786,7.175 -1.25079,8.91667 l -0.64168,3.16666 4.60834,0 c 3.24476,0 4.60833,-0.40709 4.60833,-1.37582 z m 9.62974,0.77718 c 0.62135,-0.40408 1.44123,-3.65969 1.82196,-7.23469 0.38072,-3.575 0.91516,-7.2875 1.18765,-8.25 0.37489,-1.32422 -0.0988,-1.75 -1.94696,-1.75 -2.704,0 -3.01591,0.86333 -4.24507,11.75 -0.71645,6.34567 -0.011,7.56143 3.18242,5.48469 z m 20.53493,-5.73259 -0.33532,-6.5021 5.08532,0 5.08533,0 0,3.33948 c 0,2.59803 0.55904,3.59421 2.5179,4.48672 l 2.5179,1.14723 -0.18232,-5.15113 c -0.25558,-7.22103 -2.10624,-8.83119 -10.10348,-8.7905 -8.72873,0.0444 -9.75,1.05645 -9.75,9.66178 0,7.58573 0.29593,8.30538 3.41667,8.30852 1.93205,0.002 2.05898,-0.47004 1.748,-6.5 z M 291,393 c 0,-8.93333 -0.0185,-9 -2.5,-9 -2.48148,0 -2.5,0.0667 -2.5,9 0,8.93333 0.0185,9 2.5,9 2.48148,0 2.5,-0.0667 2.5,-9 z m 34.67577,5.25 c -0.31892,-2.0625 -0.88441,-6.1125 -1.25664,-9 -0.58929,-4.57125 -0.96669,-5.25 -2.91913,-5.25 -1.95244,0 -2.32984,0.67875 -2.91913,5.25 -0.37223,2.8875 -0.93772,6.9375 -1.25664,9 l -0.57985,3.75 4.75562,0 4.75562,0 -0.57985,-3.75 z"
       id="path3037"
       inkscape:connector-curvature="0" />
    <path
       style="fill:#b2b2b2"
       d="M 0,250 0,0 l 250,0 250,0 0,250 0,250 -250,0 -250,0 0,-250 z m 162.48206,127 c 8.10333,-17.875 14.89064,-32.66827 15.08291,-32.87394 0.19227,-0.20567 4.98131,1.67161 10.64231,4.17174 22.20017,9.80451 37.71225,13.08037 61.79272,13.04948 24.19367,-0.031 42.30768,-3.92604 63.26477,-13.60366 4.82062,-2.22608 8.94461,-3.86656 9.16443,-3.64552 0.3098,0.31154 35.73992,78.11709 42.07682,92.4019 1.12545,2.53703 1.34342,-7.28222 1.41241,-63.62756 0.0718,-58.68111 0.26507,-66.77984 1.62015,-67.90446 5.32988,-4.42341 19.14042,-29.54871 24.33901,-44.27957 5.93865,-16.82797 7.51865,-26.99277 7.56802,-48.68841 0.0381,-16.75944 -0.28465,-21.04596 -2.29674,-30.5 -6.2459,-29.34708 -19.81748,-54.30293 -41.08647,-75.55106 C 326.129,76.0449 292.2757,61.996822 250,61.936304 c -22.12912,-0.03168 -37.89312,3.005045 -57.7929,11.133027 -33.07978,13.511299 -62.05786,41.200709 -77.70589,74.250249 -10.95264,23.1326 -14.01791,37.4598 -13.94519,65.18042 0.0469,17.89427 0.32466,21.15815 2.63765,31 4.8553,20.65938 14.06151,41.03211 25.55633,56.55442 l 5.25,7.08947 0.0139,66.17806 0.0139,66.17805 6.86041,-15 c 3.77323,-8.25 13.49041,-29.625 21.59375,-47.5 z m -22.41438,-13.37244 c -0.0635,-45.85973 0.037,-48.78785 1.63101,-47.5 0.93428,0.75484 3.97178,3.47026 6.75,6.03425 6.29099,5.80591 8.42369,7.48272 17.25486,13.56641 l 7.06114,4.86435 -15.13622,33.45371 C 149.30355,392.44583 141.96195,408.625 141.31381,410 c -0.9236,1.95936 -1.19309,-8.06893 -1.24613,-46.37244 z m 218.00375,45.1387 C 357.28572,406.96982 351.94708,395.15 346.2078,382.5 340.46852,369.85 333.87163,355.21856 331.54805,349.9857 l -4.22469,-9.5143 7.70047,-5.23868 c 4.23526,-2.88127 11.47501,-8.57651 16.08832,-12.65608 l 8.38785,-7.4174 0.26762,24.48978 c 0.14719,13.46937 0.14719,35.26586 0,48.43663 -0.24303,21.74681 -0.39887,23.64679 -1.69619,20.68061 z M 233,355.32668 C 196.07284,349.40425 168.57271,335.53812 145.5845,311.25 l -5.91549,-6.25 39.00498,0 39.00498,0 1.29102,2.75 c 0.71006,1.5125 4.11515,9.05 7.56686,16.75 3.45172,7.7 8.09739,17.9375 10.32372,22.75 l 4.04786,8.75 -2.70421,-0.13618 C 236.7169,355.78892 234.375,355.54721 233,355.32668 z M 245.52044,352.75 c -0.75763,-1.7875 -5.89257,-13.15 -11.41097,-25.25 l -10.03345,-22 12.96199,-0.27903 c 7.12909,-0.15346 18.76605,-0.15346 25.8599,0 l 12.8979,0.27903 -9.91656,22 c -5.45411,12.1 -10.60428,23.4625 -11.44483,25.25 -1.22556,2.60628 -2.12327,3.25 -4.53236,3.25 -2.44002,0 -3.26277,-0.61026 -4.38162,-3.25 z M 260,355.067 c 0,-0.51314 4.9999,-11.98814 11.11089,-25.5 L 282.22178,305 l 39.0762,0 39.0762,0 -2.93709,3.11895 c -24.7088,26.23869 -51.69942,40.8128 -85.93709,46.40341 -10.60317,1.73138 -11.5,1.77385 -11.5,0.54464 z M 140.07608,216.75 l 0.0761,-82.25 4.01997,8.5 c 2.21099,4.675 9.09837,19.75 15.3053,33.5 6.20692,13.75 12.41785,27.475 13.80205,30.5 1.38421,3.025 11.16114,24.625 21.72651,48 10.56537,23.375 19.41278,42.8375 19.6609,43.25 0.24813,0.4125 -16.45041,0.75 -37.10787,0.75 L 140,299 l 0.0761,-82.25 z m 79.58147,79.01507 c -1.24244,-2.9356 -22.1498,-49.09731 -64.78396,-143.03762 C 146.69312,134.70255 140,119.33582 140,118.57917 140,116.12325 160.23724,97.835871 170.19717,91.291501 195.14148,74.901335 220.06982,67.47715 250,67.524544 c 30.92494,0.04897 55.36178,7.434002 80.71584,24.393057 C 340.22183,98.27605 360,116.24897 360,118.52884 c 0,0.72898 -11.99536,27.79571 -26.65635,60.14829 C 318.68266,211.02971 300.4869,251.225 292.90863,268 l -13.77866,30.5 -29.04527,0.26507 -29.04526,0.26508 -1.38189,-3.26508 z M 289.65294,288.75 c 2.49623,-5.6375 13.44317,-29.825 24.32655,-53.75 10.88337,-23.925 25.06325,-55.2 31.51084,-69.5 6.44758,-14.3 12.33189,-27.125 13.07624,-28.5 1.14737,-2.11949 1.35945,10.01888 1.39339,79.75 L 360,299 l -37.44282,0 -37.44283,0 4.53859,-10.25 z m -162.49975,-1 c -15.21587,-25.73117 -21.48194,-47.96165 -21.49247,-76.25 -0.0106,-28.53118 7.91415,-55.12921 23.83564,-80 l 4.48118,-7 0.0112,86.75 c 0.006,47.7125 -0.16553,86.75 -0.38156,86.75 -0.21603,0 -3.12035,-4.6125 -6.45402,-10.25 z m 238.86456,-76.22251 c -0.0151,-74.08397 0.18603,-86.6802 1.35735,-85 11.64114,16.69856 20.77624,38.39509 24.81981,58.94888 2.72781,13.86569 2.9337,36.37636 0.45957,50.24719 -3.30915,18.55224 -11.33725,39.03467 -21.46966,54.77644 l -5.14931,8 -0.0178,-86.97251 z M 193.42857,436.42857 C 194.57059,435.28655 195,432.85909 195,427.5452 c 0,-6.46972 -0.23025,-7.37215 -1.999,-7.83469 -2.81055,-0.73497 -3.50672,0.93054 -3.15146,7.53949 l 0.30909,5.75 -6.15863,0 -6.15863,0 0.30909,-5.75 c 0.35824,-6.66431 -0.33868,-8.27505 -3.25086,-7.51349 -1.94819,0.50946 -2.07273,1.1143 -1.73968,8.44836 0.25477,5.60997 0.7908,8.17278 1.84941,8.84206 2.60274,1.64553 16.63107,1.18981 18.41924,-0.59836 z M 219.31578,435.75 c 0.29293,-1.2375 0.83712,-5.22193 1.2093,-8.85429 0.75272,-7.34617 0.0122,-8.35317 -5.35329,-7.28007 l -2.80634,0.56127 0.83337,6.66155 c 1.25296,10.01546 1.6341,11.16154 3.71182,11.16154 1.11742,0 2.08732,-0.90734 2.40514,-2.25 z m 16.53803,-6.42955 c 0.61623,-4.77375 0.97616,-8.82382 0.79983,-9.00014 -0.73,-0.73 -6.57662,-0.98595 -7.63136,-0.33408 -0.85222,0.5267 -0.83449,2.89298 0.0701,9.35935 1.10565,7.90359 1.40287,8.65442 3.42585,8.65442 2.03067,0 2.30847,-0.72285 3.33557,-8.67955 z m 36.13686,7.70648 c 1.05899,-0.66953 1.59474,-3.23423 1.85006,-8.8565 l 0.3594,-7.91406 -2.95261,-0.43335 -2.9526,-0.43335 0.48691,6.80517 0.4869,6.80516 -5.13436,0 -5.13437,0 0,-3.33948 c 0,-2.5917 -0.55981,-3.59456 -2.5,-4.47857 l -2.5,-1.13907 0,5.77856 c 0,3.17821 0.54,6.31856 1.2,6.97856 1.43129,1.43129 14.60413,1.60933 16.79067,0.22693 z M 302,435.5 c 0,-2.3611 -0.30305,-2.5 -5.45431,-2.5 l -5.45431,0 -0.29569,-6.75 c -0.26217,-5.98477 -0.52242,-6.75 -2.29569,-6.75 -1.83513,0 -2.0237,0.76251 -2.28753,9.25 l -0.28752,9.25 8.03752,0 C 301.86917,438 302,437.9593 302,435.5 z m 14.36028,0.75 c 0.27228,-0.9625 0.78515,-4.225 1.13972,-7.25 0.35457,-3.025 0.86744,-6.2875 1.13972,-7.25 0.37681,-1.33201 -0.10207,-1.75 -2.00494,-1.75 -2.69765,0 -3.091,0.75979 -4.14175,8 -0.35919,2.475 -0.84848,5.7375 -1.08731,7.25 -0.37409,2.36906 -0.0953,2.75 2.01263,2.75 1.4751,0 2.64349,-0.69501 2.94193,-1.75 z m 15.32225,-0.5 c -0.29386,-1.2375 -0.84731,-4.86002 -1.22989,-8.05005 -0.38257,-3.19002 -1.32895,-6.4334 -2.10306,-7.20751 -1.77189,-1.77189 -4.56194,-0.8004 -3.95172,1.37598 0.25161,0.89737 0.74757,4.10658 1.10214,7.13158 0.96059,8.19526 1.33397,9 4.1758,9 2.12677,0 2.45391,-0.3668 2.00673,-2.25 z M 177.56104,401.90123 c 0.37349,-0.60432 0.73755,-3.64182 0.80902,-6.75 L 178.5,389.5 l 5.5,0 5.5,0 0.13171,5.83171 c 0.1397,6.18565 1.24305,8.31406 3.80107,7.33246 C 194.66194,402.1925 195,400.4536 195,394.60281 195,384.77368 194.21611,384 184.25731,384 174.03915,384 173,384.96817 173,394.48832 c 0,3.94809 0.3,7.47835 0.66667,7.84501 1.02558,1.02558 3.13836,0.79116 3.89437,-0.4321 z M 214.62153,400.25 c -0.29555,-1.5125 -0.83373,-5.7875 -1.19595,-9.5 -0.61088,-6.26115 -0.83119,-6.75 -3.04208,-6.75 -2.03739,0 -2.3729,0.47194 -2.3105,3.25 0.14906,6.63559 1.63426,13.95169 3.00889,14.82177 2.77007,1.75334 4.10409,1.06675 3.53964,-1.82177 z m 10.36316,1.33288 c 0.008,0.59559 1.02781,1.00829 2.26531,0.91712 1.2375,-0.0912 2.2104,-0.35347 2.16199,-0.58288 -0.0484,-0.22942 -0.40159,-2.89212 -0.78488,-5.91712 -1.42331,-11.23336 -1.68586,-12 -4.10957,-12 -1.97359,0 -2.34562,0.66508 -2.93667,5.25 -0.37223,2.8875 -0.93088,6.89474 -1.24144,8.90499 -0.4667,3.02088 -0.24151,3.72266 1.29795,4.04506 1.02444,0.21455 2.19323,-0.0802 2.59731,-0.65498 0.50413,-0.71712 0.73949,-0.70525 0.75,0.0378 z m 13.63002,0.65181 c 0.61309,-0.40408 1.41874,-3.43469 1.79033,-6.73469 0.3716,-3.3 0.91823,-7.2375 1.21475,-8.75 0.4712,-2.40352 0.22779,-2.75 -1.93193,-2.75 -2.78284,0 -3.17802,0.99181 -4.24494,10.65406 -0.82491,7.4705 0.0751,9.62159 3.17179,7.58063 z m 20.53068,-6.86612 -0.33355,-6.48584 4.84408,0.30864 c 2.955,0.18827 4.89283,0.7961 4.96908,1.55863 0.0688,0.6875 0.18125,2.07777 0.25,3.08948 0.0688,1.01172 1.25,2.35207 2.625,2.97857 2.49049,1.13474 2.5,1.11948 2.5,-4.01075 0,-7.48543 -1.56917,-8.8073 -10.45499,-8.8073 -4.2239,0 -7.63561,0.4906 -8.34501,1.2 -0.72636,0.72636 -1.2,4.25121 -1.2,8.93045 0,7.24362 0.1417,7.75308 2.25,8.08981 1.2375,0.19765 2.47026,0.19619 2.73946,-0.003 0.26921,-0.19944 0.33937,-3.28124 0.15593,-6.84845 z m 31.64214,-2.21165 0.28752,-9.15692 -2.53752,0 C 286.01234,384 286,384.0429 286,392.83333 c 0,4.85834 0.25568,9.08902 0.56818,9.40151 0.31249,0.3125 1.32499,0.45811 2.25,0.32359 1.41078,-0.20517 1.72816,-1.72032 1.96935,-9.40151 z m 35.20928,7.63393 c 0.002,-0.94004 -0.50151,-5.10254 -1.11837,-9.25 C 323.86275,384.71187 323.54382,384 321.5,384 c -2.04382,0 -2.36275,0.71187 -3.37844,7.54085 -1.6933,11.38498 -1.80663,11.01614 3.37525,10.98563 3.56348,-0.021 4.49748,-0.38122 4.5,-1.73563 z"
       id="path3035"
       inkscape:connector-curvature="0" />
    <path
       style="fill:#8e8e8e"
       d="M 0,250 0,0 l 250,0 250,0 0,250 0,250 -250,0 -250,0 0,-250 z m 151.74172,151 c 9.34609,-20.625 18.93949,-41.8875 21.31865,-47.25 2.37917,-5.3625 4.70011,-9.75 5.15766,-9.75 0.45754,0 3.98799,1.58938 7.84544,3.53196 37.38883,18.82871 87.44686,18.92656 127.1871,0.24862 4.81281,-2.26203 8.91154,-3.92553 9.10829,-3.69668 0.19675,0.22886 3.19166,6.7161 6.65534,14.4161 3.46369,7.7 8.17074,18.05 10.46012,23 2.28937,4.95 9.08171,19.96906 15.09409,33.37569 L 365.5,439.25139 366,372.70582 c 0.49819,-66.30487 0.50775,-66.55399 2.64393,-68.87569 7.71074,-8.38042 18.72761,-29.18536 24.22815,-45.75393 5.47856,-16.50238 6.60201,-24.41182 6.61563,-46.5762 0.0106,-17.31488 -0.29975,-21.39364 -2.31189,-30.3805 C 383.44054,119.77364 336.22688,74.114928 275.5,63.450972 c -13.33053,-2.34091 -37.57874,-2.375412 -50.45542,-0.07179 -35.75367,6.39629 -65.85241,23.538558 -89.44332,50.941058 -15.91404,18.48526 -27.03344,41.14646 -32.77708,66.79926 -2.03123,9.07208 -2.31841,12.96444 -2.27837,30.8805 0.0385,17.24048 0.38978,22.04448 2.20915,30.21367 4.58457,20.58531 13.22267,40.22018 24.76242,56.28633 l 6.46438,9 0.009,65.91667 c 0.005,36.25416 0.17761,65.72916 0.38353,65.5 C 134.58034,438.6875 142.39563,421.625 151.74172,401 z M 140.01593,363.68026 140,314.86052 l 9.25,8.10624 c 5.0875,4.45843 12.2875,10.16864 16,12.68935 3.7125,2.52072 6.75,4.9857 6.75,5.47773 0,0.77026 -6.86745,16.2787 -16.54649,37.36616 -1.51468,3.3 -5.6042,12.3 -9.08781,20 l -6.33385,14 -0.0159,-48.81974 z M 351.5757,394 c -4.35837,-9.625 -11.44587,-25.25331 -15.75,-34.72957 C 331.52156,349.79417 328,341.58731 328,341.03297 c 0,-0.55433 1.9125,-2.19848 4.25,-3.65366 5.09412,-3.17127 16.23715,-12.02451 22.62801,-17.97816 l 4.62199,-4.30579 0.26762,23.88292 c 0.14719,13.13561 0.14719,34.82665 0,48.20232 L 359.5,411.5 351.5757,394 z M 225.65898,353.93006 C 196.58092,348.81123 171.15025,335.8187 150.01501,315.28354 L 139.5,305.06709 l 39.03872,-0.0335 39.03872,-0.0335 11.21953,24.75 c 6.17074,13.6125 11.21582,25.0875 11.21128,25.5 -0.0115,1.04206 -1.93881,0.86477 -14.34927,-1.31994 z M 238.70431,337.25 C 233.98774,326.9375 228.80685,315.575 227.19122,312 l -2.9375,-6.5 12.87314,-0.27903 c 7.08023,-0.15346 18.67404,-0.15346 25.76402,0 l 12.89088,0.27903 -1.85009,4 c -1.01756,2.2 -5.63529,12.325 -10.26164,22.5 -4.62634,10.175 -8.99192,19.7375 -9.7013,21.25 -0.93911,2.00236 -2.02368,2.75 -3.9893,2.75 -2.53182,0 -3.23231,-1.16488 -11.27512,-18.75 z M 260,355.13197 c 0,-0.47742 3.96711,-9.58992 8.81579,-20.25 4.84869,-10.66008 9.87891,-21.74447 11.17826,-24.63197 l 2.36246,-5.25 39.07175,0.0248 39.07174,0.0248 -10,9.73994 c -21.68246,21.1186 -47.19303,34.11478 -76.95097,39.20216 C 260.10904,356.2893 260,356.29848 260,355.13197 z M 140.07887,216.75 l 0.0789,-82.25 2.17113,4.54235 c 1.19412,2.49829 3.44703,7.41362 5.00647,10.92294 3.30992,7.44859 37.36714,82.57784 51.9203,114.53471 5.51034,12.1 11.28823,24.8125 12.83976,28.25 l 2.82095,6.25 -37.45817,0 -37.45818,0 0.0789,-82.25 z m 68.66755,54.5 c -6.92774,-15.2625 -21.45921,-47.325 -32.29215,-71.25 -10.83294,-23.925 -23.47349,-51.78701 -28.0901,-61.91557 -5.04028,-11.05807 -8.16675,-19.13108 -7.82544,-20.20647 0.84569,-2.66451 17.79832,-18.273012 26.5295,-24.426045 C 217.65955,57.799243 286.00028,58.744929 336,95.789558 c 8.47304,6.277642 24,20.970932 24,22.711392 0,0.6304 -6.01642,14.38808 -13.36983,30.57262 -7.3534,16.18454 -19.78672,43.60143 -27.62958,60.92643 -7.84287,17.325 -15.69869,34.65 -17.45738,38.5 -1.75869,3.85 -7.61372,16.7875 -13.01119,28.75 l -9.81356,21.75 -28.68807,0 -28.68808,0 -12.59589,-27.75 z m 81.71486,16 c 2.91898,-6.4625 15.30968,-33.8 27.53488,-60.75 12.2252,-26.95 26.48119,-58.44141 31.67998,-69.98091 5.19879,-11.5395 9.64844,-21.177 9.8881,-21.41667 C 359.80391,134.86276 360,171.64167 360,216.83333 L 360,299 l -37.42298,0 -37.42299,0 5.30725,-11.75 z m -163.1418,0.62778 c -3.39928,-5.70778 -7.5404,-13.40958 -9.20249,-17.11511 -13.03954,-29.07096 -16.00058,-63.21245 -8.17103,-94.214 3.63552,-14.39507 8.49502,-25.94277 16.94083,-40.25672 L 133.5,125.0839 l 0.26057,43.53321 c 0.14331,23.94327 0.14331,62.90689 0,86.58583 L 133.5,298.25555 127.31948,287.87778 z M 366.01123,211.54598 366,124.59197 l 4.63991,7.45401 c 16.1528,25.9495 23.57463,50.94284 23.59406,79.45402 0.0196,28.72501 -7.79551,55.0645 -23.73649,80 l -4.47502,7 -0.0112,-86.95402 z M 193.42857,436.42857 C 194.59507,435.26207 195,432.79699 195,426.86215 l 0,-7.99499 -2.75,0.31642 c -2.66288,0.3064 -2.75937,0.53026 -3.04569,7.06642 L 188.90862,433 184,433 l -4.90862,0 -0.29569,-6.75 c -0.28632,-6.53616 -0.38281,-6.76002 -3.04569,-7.06642 l -2.75,-0.31642 0,7.63216 C 173,437.62595 173.34033,438 183.46376,438 c 6.29701,0 8.78587,-0.39249 9.96481,-1.57143 z M 219.46004,434.75 c 1.53728,-9.07292 2.18097,-14.77565 1.71983,-15.23679 C 220.89761,419.23094 218.68091,419 216.25388,419 c -4.27798,0 -4.39632,0.084 -3.87367,2.75 0.29652,1.5125 0.83847,5.45 1.20433,8.75 0.78822,7.1096 0.96672,7.5 3.42916,7.5 1.35908,0 2.05155,-0.91995 2.44634,-3.25 z m 16.3897,-5 C 237.4393,418.37445 237.63423,419 232.5,419 c -5.20478,0 -5.12369,-0.27506 -3.37844,11.45915 1.01056,6.79453 1.34196,7.54085 3.34846,7.54085 2.02942,0 2.32913,-0.73159 3.37972,-8.25 z m 37.15857,6.23447 c 0.59328,-1.10854 0.94661,-5.27104 0.78519,-9.25 -0.28665,-7.06558 -0.3577,-7.24186 -3.0435,-7.55089 l -2.75,-0.31642 0,7.06642 0,7.06642 -4.5,0 c -4.43499,0 -4.5,-0.0482 -4.5,-3.33948 0,-2.5917 -0.55981,-3.59456 -2.5,-4.47857 l -2.5,-1.13907 0,5.77856 c 0,3.17821 0.54,6.31856 1.2,6.97856 0.72728,0.72728 4.25885,1.2 8.96482,1.2 6.7613,0 7.90422,-0.26048 8.84349,-2.01553 z M 302,435.5 c 0,-2.36364 -0.3,-2.5 -5.5,-2.5 l -5.5,0 0,-7 c 0,-6.8 -0.0714,-7 -2.5,-7 -2.49123,0 -2.5,0.0333 -2.5,9.5 l 0,9.5 8,0 c 7.86667,0 8,-0.0417 8,-2.5 z m 14.47177,0.25 c 0.56775,-2.50534 2.50886,-14.82657 2.52068,-16 0.004,-0.4125 -1.08555,-0.75 -2.42155,-0.75 -2.5431,0 -3.12065,1.6695 -5.10271,14.75 -0.61583,4.06417 -0.53166,4.25 1.92486,4.25 1.84625,0 2.71227,-0.63291 3.07872,-2.25 z m 15.52068,1.5 c -0.0118,-1.17343 -1.95293,-13.49466 -2.52068,-16 -0.36791,-1.62355 -1.23161,-2.25 -3.10211,-2.25 -2.37295,0 -2.5448,0.27493 -2.03143,3.25 0.30845,1.7875 0.84213,5.5 1.18594,8.25 0.34382,2.75 0.80241,5.5625 1.01909,6.25 0.41623,1.32064 5.46211,1.78363 5.44919,0.5 z m -153.19676,-41.5 0.29569,-6.75 4.90862,0 4.90862,0 0.29569,6.75 c 0.28632,6.53616 0.38281,6.76002 3.04569,7.06642 l 2.75,0.31642 0,-7.63216 C 195,384.37405 194.65967,384 184.53624,384 173.58665,384 173,384.56639 173,395.13785 l 0,7.99499 2.75,-0.31642 c 2.66288,-0.3064 2.75937,-0.53026 3.04569,-7.06642 z m 35.83987,3 c -0.32533,-2.3375 -0.8844,-6.6125 -1.24237,-9.5 -0.61919,-4.99461 -0.7938,-5.25 -3.58941,-5.25 -2.31608,0 -2.83617,0.3707 -2.45523,1.75 0.26583,0.9625 0.7632,4 1.10527,6.75 1.21833,9.79472 1.50307,10.5 4.23918,10.5 2.4074,0 2.50452,-0.21247 1.94256,-4.25 z m 9.70216,3 c 0.40351,-1 0.52017,-1 0.58333,0 0.0434,0.6875 1.23427,1.25 2.64634,1.25 1.96259,0 2.45353,-0.41225 2.08406,-1.75 -0.26583,-0.9625 -0.7632,-4 -1.10527,-6.75 -1.19407,-9.59967 -1.5374,-10.5 -4.00407,-10.5 -2.09625,0 -2.39789,0.665 -3.42055,7.54085 C 219.57663,401.92824 219.65099,403 221.91667,403 c 1.05416,0 2.14364,-0.5625 2.42105,-1.25 z m 15.7597,-3.25 c 0.35496,-2.2 0.94375,-6.3625 1.30842,-9.25 0.64077,-5.07359 0.58148,-5.25 -1.76441,-5.25 -3.01271,0 -3.31,0.77618 -4.19848,10.96154 l -0.71646,8.2134 2.36277,-0.33747 c 1.89721,-0.27097 2.48994,-1.12563 3.00816,-4.33747 z M 261,402.05902 c 0,-0.51754 -0.45,-1.2191 -1,-1.55902 -0.55,-0.33992 -1,-3.06648 -1,-6.05902 L 259,389 l 4.5,0 c 4.44664,0 4.5,0.0401 4.5,3.38337 0,2.32044 0.54979,3.57729 1.75,4.00064 0.9625,0.3395 2.3125,0.87949 3,1.19997 0.9136,0.42587 1.25,-0.80303 1.25,-4.56639 C 274,384.7046 273.23151,384 264.16482,384 c -4.70597,0 -8.23754,0.47272 -8.96482,1.2 -1.26927,1.26927 -1.72596,15.9407 -0.53333,17.13333 1.0218,1.02181 6.33333,0.79175 6.33333,-0.27431 z M 291,393.5 c 0,-9.46667 -0.009,-9.5 -2.5,-9.5 -2.49123,0 -2.5,0.0333 -2.5,9.5 0,9.46667 0.009,9.5 2.5,9.5 2.49123,0 2.5,-0.0333 2.5,-9.5 z m 35,6.94263 c 0,-1.40656 -0.51595,-5.68156 -1.14655,-9.5 C 323.83837,384.79606 323.45385,384 321.5,384 c -1.95385,0 -2.33837,0.79606 -3.35345,6.94263 C 316.19766,402.74363 316.26896,403 321.5,403 c 4.16025,0 4.5,-0.19308 4.5,-2.55737 z"
       id="path3033"
       inkscape:connector-curvature="0" />
    <path
       style="fill:#707070"
       d="M 0,250 0,0 l 250,0 250,0 0,250 0,250 -250,0 -250,0 0,-250 z m 159.52917,134 c 9.81127,-21.725 17.94394,-39.65054 18.07261,-39.83453 0.12868,-0.184 3.53341,1.2238 7.56609,3.12843 22.97054,10.849 46.25794,15.51927 71.73275,14.38596 20.30657,-0.90338 41.53227,-6.18714 57.48227,-14.30918 3.80429,-1.93722 7.26488,-3.12291 7.73692,-2.65087 0.76002,0.76002 14.10564,29.77697 35.96682,78.20149 L 365.5,439.34259 366,372.9213 366.5,306.5 l 4.62171,-6 c 6.75177,-8.76528 14.34034,-22.51199 18.98482,-34.39106 C 411.65057,211.00636 398.74133,148.6206 357.04,106.31014 344.55577,93.643556 332.80547,85.078905 317.5,77.489916 297.7736,67.708872 284.95043,64.083195 262.21499,61.858393 236.71331,59.362898 209.8477,64.283412 185.39095,75.928939 117.11985,108.43747 83.391137,187.10263 107.12522,258.46739 c 5.3168,15.98681 11.55288,28.03098 22.09434,42.6723 l 4.78044,6.63969 0.0862,65.86031 0.0861,65.86031 3.75911,-8 c 2.06751,-4.4 11.78651,-25.775 21.59777,-47.5 z M 140,363.08566 l 0,-48.24767 7.25,6.62764 c 3.9875,3.6452 11.1875,9.41066 16,12.81213 4.8125,3.40147 8.75,6.48262 8.75,6.84701 0,0.75246 -30.95923,69.15046 -31.59016,69.7919 C 140.18443,411.14583 140,389.62188 140,363.08566 z m 203.95039,13.77229 C 335.45268,358.07982 328.5,342.14853 328.5,341.45508 c 0,-0.69345 3.78007,-3.96291 8.40017,-7.26545 4.62009,-3.30255 11.70759,-9.00016 15.75,-12.66135 L 360,314.87156 l 0,48.06422 C 360,389.3711 359.86518,411 359.70039,411 c -0.16479,0 -7.25229,-15.36392 -15.75,-34.14205 z M 229.5,354.52012 c -32.33569,-5.1818 -60.19166,-19.34742 -82.47497,-41.94105 L 139.55006,305 l 39.09164,0 39.09165,0 2.0262,4.75 c 1.11441,2.6125 6.12441,13.87145 11.13333,25.01989 5.00891,11.14844 9.10712,20.48594 9.10712,20.75 0,0.6224 -0.92954,0.5339 -10.5,-0.99977 z m 6.31713,-23.77012 -11.43884,-25.25 12.81085,-0.27903 c 7.04597,-0.15346 18.57755,-0.15346 25.62573,0 L 275.62974,305.5 264.14347,330.75 C 253.25704,354.68137 252.51616,356 249.95658,356 c -2.56083,0 -3.29268,-1.30692 -14.13945,-25.25 z M 260,355.33997 c 0,-0.29386 3.18489,-7.57807 7.07754,-16.18713 3.89265,-8.60906 8.95515,-19.81385 11.25,-24.89953 l 4.17246,-9.24669 39,0.0388 39,0.0388 -10.29058,9.9212 C 329.23184,335.23 302.2763,349.20631 276.05841,353.45232 262.9698,355.57203 260,355.92113 260,355.33997 z M 140.08157,216.75 c 0.0685,-69.04072 0.29365,-81.7682 1.40209,-79.25 0.72629,1.65 7.15497,15.825 14.28598,31.5 7.131,15.675 21.62827,47.625 32.21616,71 10.58789,23.375 20.77249,45.82587 22.63245,49.89083 1.85996,4.06496 3.38175,7.77746 3.38175,8.25 C 214,298.61337 197.35,299 177,299 l -37,0 0.0816,-82.25 z m 62.92822,41.5 c -10.12227,-22.4125 -20.27048,-44.8 -22.55157,-49.75 -2.28109,-4.95 -12.34988,-27.10986 -22.3751,-49.24413 l -18.22767,-40.24413 2.09742,-2.94555 c 3.4914,-4.90322 17.01181,-16.819519 26.31766,-23.195229 C 192.82174,76.050199 220.3221,67.614057 250.5,67.64585 c 37.88417,0.03991 72.1833,13.98175 100.32778,40.78102 2.93028,2.79022 6.22355,6.3108 7.31837,7.82352 l 1.99059,2.75039 -26.41604,58.24961 C 319.19188,209.28767 300.84307,249.7875 292.94556,267.25 l -14.35911,31.75 -28.58626,0 -28.58627,0 -18.40413,-40.75 z M 286,298.14083 c 0,-0.47254 1.52473,-4.18504 3.3883,-8.25 3.92793,-8.56791 36.06701,-79.50552 56.13013,-123.89083 7.58266,-16.775 13.94302,-30.6875 14.13412,-30.91667 0.1911,-0.22916 0.34745,36.55834 0.34745,81.75 L 360,299 l -37,0 c -20.35,0 -37,-0.38663 -37,-0.85917 z M 128.27563,289.25 c -15.99944,-27.11879 -22.32975,-48.96089 -22.40255,-77.29776 -0.0728,-28.31548 6.85909,-52.09669 23.01563,-78.96008 l 5.10747,-8.49216 0.002,86.75 c 0.001,47.7125 -0.12456,86.75 -0.27913,86.75 -0.15458,0 -2.60407,-3.9375 -5.44333,-8.75 z m 237.74696,-77 c -0.0124,-47.4375 0.17221,-86.25 0.41029,-86.25 0.65659,0 9.91669,15.65377 13.52721,22.86712 4.64156,9.27325 10.64058,28.16283 12.51104,39.39445 3.92306,23.55694 1.02521,52.24186 -7.55031,74.73843 -2.54457,6.6753 -10.66067,22.48042 -15.40531,30 l -3.47034,5.5 -0.0226,-86.25 z M 193.8,436.8 c 0.74056,-0.74056 1.2,-4.37778 1.2,-9.5 l 0,-8.3 -3,0 -3,0 0,7 0,7 -5,0 -5,0 0,-7 0,-7 -3,0 -3,0 0,8.3 c 0,5.12222 0.45944,8.75944 1.2,9.5 0.74729,0.74729 4.44444,1.2 9.8,1.2 5.35556,0 9.05271,-0.45271 9.8,-1.2 z m 25.54855,-0.55 c 0.26583,-0.9625 0.7632,-4 1.10527,-6.75 0.34206,-2.75 0.86564,-6.2375 1.16351,-7.75 0.5351,-2.71711 0.47934,-2.75 -4.66287,-2.75 l -5.20446,0 0.59416,2.97079 c 0.32678,1.63393 0.89518,5.90893 1.26309,9.5 0.60935,5.94754 0.87335,6.52921 2.96346,6.52921 1.33446,0 2.49675,-0.73222 2.77784,-1.75 z m 16.52989,-5.79085 C 237.62901,418.68914 237.72441,419 232.36191,419 l -4.6381,0 0.66894,6.52921 C 229.52742,436.6043 229.98748,438 232.50344,438 c 2.03954,0 2.3599,-0.71577 3.375,-7.54085 z M 272.8,436.8 c 0.74056,-0.74056 1.2,-4.37778 1.2,-9.5 l 0,-8.3 -3,0 -3,0 0,7 0,7 -4.5,0 c -4.37785,0 -4.5,-0.0852 -4.5,-3.13976 0,-3.13156 -2.19303,-5.76589 -4.85205,-5.82844 -1.77699,-0.0418 -0.79861,11.93828 1.0719,13.12524 2.03589,1.2919 16.21926,1.00385 17.58015,-0.35704 z m 29.2,-1.3 c 0,-2.36364 -0.3,-2.5 -5.5,-2.5 l -5.5,0 0,-7 c 0,-6.8 -0.0714,-7 -2.5,-7 -2.49123,0 -2.5,0.0333 -2.5,9.5 l 0,9.5 8,0 c 7.86667,0 8,-0.0417 8,-2.5 z m 15.67143,-6 c 1.60001,-10.86287 1.63984,-10.5 -1.15238,-10.5 -2.67758,0 -2.69383,0.0377 -4.49245,10.43366 -1.47354,8.51692 -1.42668,8.74528 1.71995,8.38276 2.62435,-0.30234 2.79898,-0.67236 3.92488,-8.31642 z M 332,436.68366 c 0,-1.33872 -1.64948,-11.3391 -2.54565,-15.43366 -0.3573,-1.6325 -1.20841,-2.25 -3.10121,-2.25 -2.45361,0 -2.57339,0.22302 -2.01412,3.75 0.32706,2.0625 0.89653,6.3375 1.26549,9.5 0.64221,5.50451 0.79306,5.75 3.53317,5.75 C 330.83781,438 332,437.46552 332,436.68366 z M 179,396 l 0,-7 5,0 5,0 0,7 0,7 3,0 3,0 0,-8.3 c 0,-5.12222 -0.45944,-8.75944 -1.2,-9.5 -0.75079,-0.75079 -4.48107,-1.2 -9.96482,-1.2 C 173.29841,384 173,384.31491 173,395.43426 l 0,7.56574 3,0 3,0 0,-7 z m 35.60681,1.75 C 212.82324,383.36313 213.0469,384 209.77805,384 c -2.60125,0 -2.92295,0.29572 -2.44769,2.25 0.30095,1.2375 0.85879,5.175 1.23966,8.75 0.83957,7.88076 0.90095,8 4.11783,8 2.51607,0 2.5562,-0.10979 1.91896,-5.25 z m 14.99806,2.44326 c -0.29102,-1.48129 -0.80899,-4.94326 -1.15105,-7.69326 -0.94385,-7.58801 -1.36226,-8.5 -3.89965,-8.5 -2.11126,0 -2.408,0.65189 -3.43261,7.54085 -1.74073,11.70383 -1.89519,11.26118 3.94543,11.30642 4.97306,0.0385 5.05719,-0.0107 4.53788,-2.65401 z M 240.39319,397.75 c 0.35797,-2.8875 0.92234,-7.19783 1.25415,-9.57851 0.59843,-4.29361 0.5801,-4.32587 -2.27202,-4 -2.68198,0.30642 -2.92015,0.69833 -3.54204,5.82851 -0.36669,3.025 -0.93451,7.1875 -1.26182,9.25 -0.57189,3.60379 -0.48269,3.75 2.28789,3.75 2.72858,0 2.91785,-0.28119 3.53384,-5.25 z M 261,402.05902 c 0,-0.51754 -0.45,-1.2191 -1,-1.55902 -0.55,-0.33992 -1,-3.06648 -1,-6.05902 L 259,389 l 4.5,0 c 4.43499,0 4.5,0.0482 4.5,3.33948 0,2.60815 0.5578,3.59364 2.54705,4.5 3.54639,1.61585 3.45295,1.72153 3.45295,-3.90522 0,-8.2187 -0.78785,-8.93681 -9.78518,-8.91895 -4.24315,0.008 -8.38383,0.43831 -9.2015,0.9553 -1.0885,0.68822 -1.47275,2.77255 -1.43465,7.7823 C 253.64646,401.66763 254.21726,403 257.96862,403 259.63588,403 261,402.57656 261,402.05902 z M 291,393.5 c 0,-9.46667 -0.009,-9.5 -2.5,-9.5 -2.49123,0 -2.5,0.0333 -2.5,9.5 0,9.46667 0.009,9.5 2.5,9.5 2.49123,0 2.5,-0.0333 2.5,-9.5 z m 35.60401,6.75 c -0.3052,-1.5125 -1.06215,-5.7875 -1.68212,-9.5 -1.00944,-6.0448 -1.36693,-6.75 -3.42189,-6.75 -2.05496,0 -2.41245,0.7052 -3.42189,6.75 -0.61997,3.7125 -1.37692,7.9875 -1.68212,9.5 -0.55317,2.7414 -0.5372,2.75 5.10401,2.75 5.64121,0 5.65718,-0.009 5.10401,-2.75 z"
       id="path3031"
       inkscape:connector-curvature="0" />
    <path
       style="fill:#4e4e4e"
       d="M 0,250 0,0 l 250,0 250,0 0,250 0,250 -250,0 -250,0 0,-250 z m 144.66029,167.20795 c 20.64641,-45.67571 31.64191,-69.86756 32.44907,-71.39312 0.80171,-1.51525 1.72342,-1.30103 9.14113,2.12447 10.25679,4.7366 24.54301,9.35424 36.28579,11.72842 13.57148,2.74392 43.38473,2.5045 57.06778,-0.45828 12.67485,-2.74448 23.52847,-6.32426 34.22369,-11.28777 l 8.32774,-3.8648 3.76665,8.22156 C 327.99379,356.8003 337.7463,378.275 347.59439,400 l 17.90561,39.5 0.25724,-65.91702 0.25725,-65.91702 3.88101,-5.08298 C 399.64114,263.62497 408.37678,211.14475 392.87478,164.53261 376.55122,115.45016 335.67708,77.576456 286.06516,65.563553 236.62162,53.59142 186.67225,66.346136 148.23649,100.7585 c -22.36292,20.02201 -39.36104,50.05631 -45.71268,80.77062 -8.367124,40.46047 0.89252,83.78101 25.11989,117.52147 l 6.3563,8.85215 0.04,65.79863 c 0.0361,59.33387 0.18878,65.52431 1.55397,63.00658 0.83266,-1.53563 4.91249,-10.31063 9.06628,-19.5 z M 140.08193,363.15122 140,314.80244 147.37514,321.69 c 4.05633,3.78817 10.91883,9.30239 15.25,12.25383 4.33117,2.95145 8.26412,5.70826 8.73988,6.12624 0.70112,0.61597 -9.7166,24.5544 -28.90949,66.42993 l -2.29166,5 -0.0819,-48.34878 z M 355.32392,401.75 c -2.28471,-5.0875 -9.4329,-20.93051 -15.88487,-35.20668 -10.60154,-23.45789 -11.56334,-26.05712 -9.99085,-27 4.95874,-2.97332 17.85892,-12.99058 23.8018,-18.4826 l 6.75,-6.2379 0,48.08859 C 360,389.36013 359.88253,411 359.73897,411 c -0.14357,0 -2.13035,-4.1625 -4.41505,-9.25 z M 235.5,355.31107 c -35.27263,-4.57679 -65.58302,-19.38786 -89.47111,-43.71974 L 139.55778,305 l 38.97111,0.0281 38.97111,0.0281 11,24.4782 c 12.40774,27.61084 11.95784,26.51796 10.83333,26.31578 -0.45833,-0.0824 -2.18333,-0.325 -3.83333,-0.5391 z M 236.18357,331.25 C 230.02293,317.6375 224.98636,306.1625 224.9912,305.75 224.99604,305.3375 236.25,305 250,305 c 13.75,0 25,0.33027 25,0.73394 0,0.40366 -5.03334,11.87866 -11.18519,25.5 -14.82307,32.82097 -12.78519,32.81979 -27.63124,0.0161 z M 260,355.49785 c 0,-0.29715 4.55432,-10.54322 10.12072,-22.76906 5.56639,-12.22583 10.56041,-23.46629 11.09782,-24.97879 l 0.97711,-2.75 39.12087,0 39.12087,0 -5.96869,6.1034 c -14.04745,14.36449 -32.18495,26.6832 -50.00162,33.96035 -9.53714,3.8954 -26.20546,8.39873 -34.96708,9.44714 -2.75,0.32907 -6.0125,0.80731 -7.25,1.06276 -1.2375,0.25545 -2.25,0.22134 -2.25,-0.0758 z M 140,217.33333 c 0,-44.91666 0.20337,-81.46329 0.45194,-81.21472 0.36892,0.36891 9.20355,19.44629 14.99566,32.38139 0.73884,1.65 8.08195,17.85 16.31802,36 8.23608,18.15 21.10812,46.52357 28.60453,63.05237 C 207.86657,284.08118 214,297.91868 214,298.30237 214,298.68607 197.35,299 177,299 l -37,0 0,-81.66667 z M 219.83575,295.25 c -0.89983,-2.0625 -9.59254,-21.3 -19.31713,-42.75 -38.31196,-84.50654 -50.51914,-111.45567 -55.43305,-122.37664 l -5.11895,-11.37664 3.65873,-4.465 c 4.86412,-5.93602 16.97626,-16.2042 26.97448,-22.867874 46.89824,-31.257023 109.88061,-31.737284 157.0637,-1.197662 9.14994,5.922376 24.15502,18.505416 28.74045,24.101336 l 3.71014,4.52774 -15.35736,33.82737 c -8.44654,18.60505 -26.80972,59.13269 -40.80706,90.06141 l -25.4497,56.23405 -28.5141,0.0159 -28.5141,0.016 -1.63605,-3.75 z M 286,298.17129 c 0,-0.45579 3.99595,-9.56829 8.8799,-20.25 4.88394,-10.68171 17.54338,-38.54629 28.13209,-61.92129 28.6952,-63.34581 35.08426,-77.3466 36.05055,-79 0.50745,-0.86827 0.88945,32.92906 0.90705,80.25 L 360,299 l -37,0 c -20.35,0 -37,-0.37292 -37,-0.82871 z M 127.79778,288.16331 c -15.2515,-25.8461 -21.78518,-48.85155 -21.79376,-76.73709 -0.008,-27.15388 7.05839,-52.01957 21.62798,-76.10225 l 5.868,-9.69945 0.26062,43.18774 c 0.14335,23.75326 0.14335,62.49873 0,86.10105 l -0.26062,42.9133 -5.70222,-9.6633 z M 366,211.5 c 0,-47.025 0.17676,-85.5 0.39279,-85.5 0.93051,0 12.89042,21.30168 16.03231,28.555 16.27058,37.562 15.25327,84.1613 -2.61707,119.87911 C 376.32058,281.40454 367.07691,297 366.43288,297 366.1948,297 366,258.525 366,211.5 z M 193.8,436.8 c 0.74056,-0.74056 1.2,-4.37778 1.2,-9.5 l 0,-8.3 -3,0 -3,0 0,7 0,7 -5,0 -5,0 0,-7 0,-7 -3,0 -3,0 0,8.3 c 0,5.12222 0.45944,8.75944 1.2,9.5 0.74729,0.74729 4.44444,1.2 9.8,1.2 5.35556,0 9.05271,-0.45271 9.8,-1.2 z m 26.87143,-7.3 c 0.64809,-4.4 1.21214,-8.5625 1.25345,-9.25 0.0509,-0.84725 -1.57705,-1.25 -5.05269,-1.25 l -5.12781,0 0.59464,3.75 c 0.32706,2.0625 0.89931,6.36114 1.27167,9.55254 0.64382,5.51793 0.80468,5.7877 3.27972,5.5 2.44575,-0.2843 2.67374,-0.78493 3.78102,-8.30254 z m 14.67273,5.52921 c 0.32678,-1.63393 0.89518,-5.90893 1.26309,-9.5 L 237.27619,419 l -4.47143,0 c -2.45928,0 -4.70237,0.23094 -4.98463,0.51321 -0.28227,0.28226 -0.13468,3.09476 0.32797,6.25 1.80355,12.29995 1.7815,12.23679 4.27221,12.23679 1.78345,0 2.469,-0.69655 2.92385,-2.97079 z M 272.8,436.8 c 0.74056,-0.74056 1.2,-4.37778 1.2,-9.5 l 0,-8.3 -3.25,-0.002 -3.25,-0.002 0.33206,7.00226 0.33206,7.00225 -4.58206,0 C 259.02095,433 259,432.98416 259,429.53518 259,426.20926 257.03059,424 254.06574,424 c -1.33735,0 -1.40058,7.98911 -0.0905,11.4349 0.93907,2.46995 1.28406,2.5651 9.3,2.5651 5.14147,0 8.78361,-0.45886 9.52475,-1.2 z m 29.2,-1.3 c 0,-2.36364 -0.3,-2.5 -5.5,-2.5 l -5.5,0 0,-7 c 0,-6.8 -0.0714,-7 -2.5,-7 -2.49123,0 -2.5,0.0333 -2.5,9.5 l 0,9.5 8,0 c 7.86667,0 8,-0.0417 8,-2.5 z m 15.39549,-3.25 c 0.36896,-3.1625 0.94419,-7.4735 1.27828,-9.57999 0.59447,-3.74827 0.54575,-3.82295 -2.28317,-3.5 -2.77618,0.31693 -2.9376,0.62687 -4.07784,7.82999 -1.7411,10.99881 -1.74093,11 1.54956,11 2.74011,0 2.89096,-0.24549 3.53317,-5.75 z m 14.54306,3.5 c -0.0338,-1.2375 -0.6042,-5.4 -1.26756,-9.25 -1.12536,-6.53142 -1.38901,-7.02118 -3.93854,-7.31642 -3.17478,-0.36765 -3.1413,-0.59122 -1.58219,10.56642 1.13642,8.13266 1.19334,8.25 4.00128,8.25 2.3055,0 2.83675,-0.42888 2.78701,-2.25 z M 179,396 l 0,-7 5,0 5,0 0,7 0,7 3,0 3,0 0,-8.3 c 0,-5.12222 -0.45944,-8.75944 -1.2,-9.5 -0.74729,-0.74729 -4.44444,-1.2 -9.8,-1.2 -5.35556,0 -9.05271,0.45271 -9.8,1.2 -0.74056,0.74056 -1.2,4.37778 -1.2,9.5 l 0,8.3 3,0 3,0 0,-7 z m 35.58898,0.75 C 213.26994,384.43351 213.10635,384 209.77742,384 c -2.83299,0 -2.96878,0.18093 -2.43919,3.25 0.30845,1.7875 0.84213,5.5 1.18594,8.25 0.88716,7.09584 1.10668,7.5 4.07361,7.5 l 2.66055,0 -0.66935,-6.25 z m 15.3359,4.94274 c -0.0413,-0.65601 -0.60536,-4.79274 -1.25345,-9.19274 -1.1259,-7.64406 -1.30053,-8.01408 -3.92488,-8.31642 -1.74677,-0.20124 -2.76584,0.16277 -2.79954,1 -0.0291,0.72403 -0.62514,4.80792 -1.32445,9.0753 -0.6993,4.26739 -1.09341,7.93694 -0.87578,8.15456 1.03385,1.03386 10.24751,0.38145 10.1781,-0.7207 z M 240.84974,394.75 c 1.53637,-10.99487 1.57556,-10.75 -1.72053,-10.75 -2.83324,0 -2.87987,0.0948 -3.56497,7.25 -0.3818,3.9875 -0.93873,8.2625 -1.23762,9.5 -0.47063,1.94856 -0.1473,2.25 2.41343,2.25 2.94373,0 2.96199,-0.0367 4.10969,-8.25 z M 261,402.2 c 0,-0.44 -0.47722,-1.27722 -1.06049,-1.86049 -0.58327,-0.58327 -0.92077,-3.26077 -0.75,-5.95 L 259.5,389.5 l 4.25,-0.3075 c 4.22627,-0.30578 4.25,-0.28853 4.25,3.08949 0,2.66976 0.54527,3.64542 2.54705,4.55749 1.40088,0.63829 2.75088,1.16052 3,1.16052 1.03716,0 0.3544,-11.69855 -0.74705,-12.8 -1.42076,-1.42076 -15.58335,-1.62276 -17.74825,-0.25315 -1.87705,1.18751 -2.70849,12.9575 -1.12442,15.91737 C 254.70001,402.30799 256.031,403 258.03518,403 259.66583,403 261,402.64 261,402.2 z m 30,-8.7 c 0,-9.46667 -0.009,-9.5 -2.5,-9.5 -2.49123,0 -2.5,0.0333 -2.5,9.5 0,9.46667 0.009,9.5 2.5,9.5 2.49123,0 2.5,-0.0333 2.5,-9.5 z m 36,9.18366 c 0,-0.17399 -0.45733,-2.98649 -1.01629,-6.25 -0.55896,-3.26351 -1.25435,-7.39616 -1.54532,-9.18366 -0.42663,-2.62102 -0.99531,-3.25 -2.93839,-3.25 -1.94308,0 -2.51176,0.62898 -2.93839,3.25 -0.29097,1.7875 -0.98636,5.92015 -1.54532,9.18366 -0.55896,3.26351 -1.01629,6.07601 -1.01629,6.25 0,0.17399 2.475,0.31634 5.5,0.31634 3.025,0 5.5,-0.14235 5.5,-0.31634 z"
       id="path3029"
       inkscape:connector-curvature="0" />
    <path
       style="fill:#303030"
       d="M 0,250 0,0 l 250,0 250,0 0,250 0,250 -250,0 -250,0 0,-250 z m 153.50596,148 c 10.33204,-22.825 20.05697,-44.32553 21.61095,-47.77895 l 2.82542,-6.27895 6.2304,3.14509 c 9.25179,4.67029 23.49483,9.58538 35.0711,12.10257 8.74174,1.90085 13.2832,2.23013 30.75617,2.23001 17.45165,-1.2e-4 21.96289,-0.32653 30.33788,-2.19504 12.28503,-2.74088 26.10374,-7.43623 34.92799,-11.86793 l 6.76588,-3.39793 3.30388,7.27056 c 1.81713,3.99882 11.59749,25.56068 21.73412,47.91526 l 18.43025,40.64469 0.25715,-65.9358 0.25715,-65.9358 5.36962,-7.20889 c 19.18183,-25.75227 28.83164,-55.46867 28.9688,-89.20889 0.0755,-18.57568 -2.08426,-31.78932 -7.95076,-48.64335 C 370.46567,99.835325 311.0956,58.787081 245.5,61.289194 210.37864,62.628882 182.1471,73.073602 155.5,94.586163 143.98386,103.8833 137.85688,110.22949 129.18479,121.84288 99.937139,161.01043 91.540372,213.61302 107.21107,259.5 c 5.33979,15.636 14.45815,32.7556 23.53893,44.19401 l 3.25,4.0938 0,66.27276 c 0,36.45002 0.1621,66.08526 0.36022,65.8561 C 134.55834,439.6875 143.17393,420.825 153.50596,398 z M 140.07064,363.09149 140,314.68299 l 6.25,5.98812 c 5.50183,5.27131 20.19118,16.79752 24.43146,19.1705 1.26756,0.70936 -0.85719,6.09799 -12.71824,32.25502 C 150.1312,389.36848 142.91726,405.3 141.93223,407.5 c -1.75279,3.91477 -1.79246,2.96851 -1.86159,-44.40851 z m 203.58694,12.723 c -13.13927,-29.13713 -15.58433,-35.27598 -14.32983,-35.97803 4.23228,-2.3685 18.92603,-13.89942 24.42225,-19.16535 l 6.25,-5.98812 0,48.1585 c 0,26.48718 -0.1125,48.14637 -0.25,48.13153 -0.1375,-0.0148 -7.37909,-15.83617 -16.09242,-35.15853 z M 236.78088,332.23897 C 230.88537,319.18254 225.77472,307.7125 225.42389,306.75 224.82716,305.11286 226.40526,305 249.89301,305 263.70186,305 275,305.2818 275,305.62622 c 0,0.34442 -3.09644,7.43192 -6.88097,15.75 -3.78453,8.31808 -8.82141,19.51128 -11.19306,24.87378 -3.83801,8.67806 -4.59321,9.74879 -6.86903,9.73897 -2.36741,-0.0102 -3.35147,-1.77061 -13.27606,-23.75 z m 23.2827,22.84552 c 0.035,-0.32147 5.1194,-11.60949 11.29875,-25.08449 l 11.23518,-24.5 38.20125,-0.26188 C 343.51245,305.08241 359,305.34838 359,305.89415 c 0,1.95141 -18.95523,18.63278 -27.99527,24.63697 -20.80049,13.81523 -40.08793,21.05691 -64.75473,24.31288 -3.4375,0.45374 -6.22139,0.56196 -6.18642,0.24049 z m -36.50874,-1.69825 c -26.38243,-4.76266 -53.13183,-18.87674 -74.71955,-39.4251 l -9.33529,-8.88583 38.91494,0.21235 38.91495,0.21234 7.80717,17 c 4.29395,9.35 8.48067,18.575 9.30382,20.5 0.82315,1.925 2.3887,5.4125 3.47899,7.75 l 1.98235,4.25 -4.20111,-0.0897 c -2.31061,-0.0494 -7.77643,-0.73516 -12.14627,-1.52402 z M 140,217.33333 c 0,-44.91666 0.18424,-81.47916 0.40943,-81.25 0.22519,0.22917 2.65815,5.36667 5.40659,11.41667 6.8385,15.05326 26.9997,59.54892 44.17772,97.5 7.84191,17.325 16.45138,36.32505 19.13214,42.22233 2.68077,5.89728 4.87412,10.95978 4.87412,11.25 C 214,298.76255 197.35,299 177,299 l -37,0 0,-81.66667 z m 80.15092,77.9322 C 219.10286,293.19449 209.89462,273.05 199.68816,250.5 189.4817,227.95 171.8903,189.08935 160.59618,164.143 l -20.53478,-45.357 4.05518,-4.80921 c 2.23035,-2.64506 7.50404,-7.71305 11.7193,-11.26219 27.41507,-23.082737 58.83451,-34.775167 93.66862,-34.857835 27.54761,-0.06538 51.89679,6.642112 75.12212,20.693956 10.51944,6.364497 26.26255,19.167309 31.64224,25.732499 l 3.68541,4.49757 -31.86351,70.35961 C 310.56582,227.83818 292.22532,268.275 287.33408,279 l -8.89315,19.5 -28.19222,0.26553 -28.19222,0.26552 -1.90557,-3.76552 z M 286,298.64464 c 0,-0.62587 8.36193,-19.37372 21.25048,-47.64464 6.89541,-15.125 21.40268,-47.075 32.23838,-71 10.8357,-23.925 19.8835,-43.6875 20.10621,-43.91667 0.22271,-0.22916 0.40493,36.33334 0.40493,81.25 L 360,299 l -37,0 c -20.35,0 -37,-0.15991 -37,-0.35536 z M 127.58778,287.60394 C 117.80517,271.21001 112.37995,257.48995 108.36869,239 c -2.5601,-11.80084 -2.59613,-41.72064 -0.0653,-54.2699 3.68397,-18.26754 10.98169,-36.2475 21.19918,-52.2301 l 4.47502,-7 0.0112,85.75 c 0.006,47.1625 -0.16998,85.75 -0.39147,85.75 -0.22148,0 -2.92577,-4.22823 -6.00952,-9.39606 z M 366,211.7 c 0,-47.135 0.17676,-85.7 0.39279,-85.7 1.05268,0 12.93041,21.63247 16.47209,30 14.34679,33.89559 14.79357,73.44759 1.22175,108.15983 -3.43843,8.79438 -14.24441,29.06662 -17.21205,32.29017 C 366.37455,296.99315 366,260.69776 366,211.7 z M 194.39301,436.41821 c 0.33385,-0.86998 0.60699,-5.14498 0.60699,-9.5 L 195,419 l -3,0 -3,0 0,7 0,7 -5,0 -5,0 0,-7 0,-7 -3,0 -3,0 0,8.3 c 0,5.12222 0.45944,8.75944 1.2,9.5 0.75929,0.75929 4.57622,1.2 10.39301,1.2 7.46033,0 9.30742,-0.29813 9.8,-1.58179 z M 220.39549,432.25 c 0.36896,-3.1625 0.93843,-7.4375 1.26549,-9.5 l 0.59464,-3.75 -5.12781,0 c -5.84297,0 -5.57929,-0.71267 -3.97755,10.75 1.1208,8.02088 1.2281,8.25 3.8636,8.25 2.55563,0 2.74917,-0.32909 3.38163,-5.75 z m 14.97381,3.41473 c 0.32236,-1.2844 0.88577,-5.5594 1.25201,-9.5 L 237.2872,419 l -5.18891,0 -5.18892,0 0.52902,3.25 c 0.29097,1.7875 0.98636,5.92015 1.54532,9.18366 0.55896,3.26351 1.01629,6.07601 1.01629,6.25 0,0.17399 1.07622,0.31634 2.39159,0.31634 1.67206,0 2.56793,-0.70259 2.97771,-2.33527 z M 272.8,436.8 c 0.74056,-0.74056 1.2,-4.37778 1.2,-9.5 l 0,-8.3 -3.25,-0.002 -3.25,-0.002 0.33206,7.00226 0.33206,7.00225 -4.08206,0 c -3.16299,0 -4.11635,-0.39401 -4.23437,-1.75 -0.0838,-0.9625 -0.19951,-2.35114 -0.25718,-3.08586 C 259.46695,426.59009 256.18178,424 254.30887,424 c -1.61231,0 -1.82044,9.1756 -0.27369,12.06574 0.89527,1.67282 2.15228,1.93426 9.3,1.93426 5.09486,0 8.72508,-0.46026 9.46482,-1.2 z m 29.2,-1.24774 c 0,-2.24778 -0.42888,-2.47243 -5.25,-2.75 L 291.5,432.5 291.39529,426 c -0.10323,-6.40778 -0.14579,-6.50417 -3,-6.79413 l -2.89529,-0.29414 0,9.54442 0,9.54441 8.25,-2.8e-4 c 8.08629,-2.7e-4 8.25,-0.0488 8.25,-2.44802 z M 317.84974,429.75 c 1.53527,-10.98701 1.57271,-10.75 -1.6982,-10.75 -2.80794,0 -2.86486,0.11734 -4.00128,8.25 -1.53527,10.98701 -1.57271,10.75 1.6982,10.75 2.80794,0 2.86486,-0.11734 4.00128,-8.25 z m 14.15154,7 c 7e-4,-0.6875 -0.51749,-4.9625 -1.15154,-9.5 -1.13642,-8.13266 -1.19334,-8.25 -4.00128,-8.25 -3.32238,0 -3.37717,0.36354 -1.7269,11.45915 1.09787,7.38152 1.18238,7.54085 4,7.54085 1.6354,0 2.87899,-0.5398 2.87972,-1.25 z M 179,396.57946 c 0,-6.20052 0.0942,-6.43992 2.75,-6.98589 5.97544,-1.22842 6.72324,-0.51218 7.04569,6.74841 0.29496,6.64153 0.30301,6.65802 3.25,6.65802 l 2.95431,0 0,-8.3 c 0,-5.12222 -0.45944,-8.75944 -1.2,-9.5 -0.74729,-0.74729 -4.44444,-1.2 -9.8,-1.2 -5.35556,0 -9.05271,0.45271 -9.8,1.2 -0.74056,0.74056 -1.2,4.37778 -1.2,9.5 l 0,8.3 3,0 3,0 0,-6.42054 z M 214.56424,395.75 C 213.49932,384.62808 213.24287,384 209.76659,384 c -2.81184,0 -2.97626,0.20164 -2.42243,2.97079 0.32678,1.63393 0.89518,5.90893 1.26309,9.5 0.65925,6.43461 0.71228,6.52921 3.66006,6.52921 l 2.99111,0 -0.69418,-7.25 z m 15.05678,3.5 c -0.35236,-2.0625 -0.92535,-6.3375 -1.2733,-9.5 -0.60369,-5.48693 -0.76129,-5.75 -3.44486,-5.75 -2.39759,0 -2.89023,0.47919 -3.34125,3.25 -0.29097,1.7875 -0.98636,5.92015 -1.54532,9.18366 -0.55896,3.26351 -1.01629,6.07601 -1.01629,6.25 0,0.17399 2.53388,0.31634 5.63084,0.31634 l 5.63084,0 -0.64066,-3.75 z m 11.23243,-3.19263 C 242.65977,385.11966 242.50045,384 239.13768,384 c -2.74011,0 -2.89096,0.24549 -3.53317,5.75 -0.36896,3.1625 -0.93843,7.4375 -1.26549,9.5 -0.57525,3.62773 -0.49743,3.75 2.38662,3.75 2.91197,0 3.00791,-0.16135 4.12781,-6.94263 z m 19.75138,5.35521 c -1.48308,-3.86484 -1.68484,-8.99267 -0.42048,-10.68673 1.00589,-1.34775 2.10423,-1.61813 4.56989,-1.125 2.66942,0.53388 3.24688,1.11526 3.25208,3.27415 0.005,1.86577 0.87219,3.1177 3,4.32849 l 2.99368,1.70349 0,-6.25349 c 0,-3.53049 -0.52252,-6.77601 -1.2,-7.45349 -0.73974,-0.73974 -4.36996,-1.2 -9.46482,-1.2 -9.65822,0 -10.34355,0.60982 -10.32153,9.18426 0.0218,8.48473 0.66047,9.81574 4.70997,9.81574 2.77713,0 3.36588,-0.32438 2.88121,-1.58742 z M 291.4,401.25 c -0.055,-0.6875 -0.1675,-4.85 -0.25,-9.25 -0.1456,-7.76533 -0.22132,-8 -2.58138,-8 -2.38314,0 -2.4377,0.18942 -2.75,9.54694 l -0.31862,9.54695 3,-0.29695 c 1.65,-0.16332 2.955,-0.85944 2.9,-1.54694 z m 35.24379,-1 c -0.28332,-1.5125 -0.7947,-5 -1.13641,-7.75 -0.93539,-7.5277 -1.39379,-8.5 -4.00738,-8.5 -2.59796,0 -3.00551,0.87617 -3.95382,8.5 -0.34206,2.75 -0.86564,6.2375 -1.16351,7.75 -0.53958,2.73983 -0.52065,2.75 5.11733,2.75 5.63157,0 5.65642,-0.0133 5.14379,-2.75 z"
       id="path3027"
       inkscape:connector-curvature="0" />
    <path
       style="fill:#000000"
       d="M 0,250 0,0 l 250,0 250,0 0,250 0,250 -250,0 -250,0 0,-250 z m 137.46229,186.71864 c 0.4721,0.42975 0.53441,0.21846 0.13847,-0.46952 -0.40393,-0.70189 2.11358,-7.5046 5.73617,-15.5 10.80916,-23.85686 12.05886,-26.61232 20.63554,-45.49912 4.55813,-10.0375 8.62901,-18.25 9.04641,-18.25 0.41739,0 0.6964,-0.5625 0.62001,-1.25 -0.2474,-2.22662 3.82263,-10.74239 5.13607,-10.74625 0.70123,-0.002 4.40742,1.57373 8.23597,3.50175 16.68306,8.40146 34.48878,12.47806 57.67521,13.20468 27.64072,0.8662 48.67529,-3.39195 70.40438,-14.25239 l 6.59052,-3.29401 2.27365,4.66811 c 1.25051,2.56746 9.38377,20.41811 18.07393,39.66811 8.69015,19.25 17.60454,38.825 19.80975,43.5 l 4.00947,8.5 0.15942,-64.5 c 0.0877,-35.475 0.27665,-65.57967 0.41995,-66.89926 0.1433,-1.31959 1.0058,-2.9442 1.91667,-3.61024 0.91086,-0.66604 1.65612,-1.42999 1.65612,-1.69767 0,-0.26768 2.5464,-4.26807 5.65866,-8.88976 10.68797,-15.87156 19.03535,-36.59143 22.92445,-56.90307 2.72947,-14.25521 2.50056,-40.96529 -0.47135,-55 -6.47862,-30.59495 -19.44722,-55.13352 -40.58739,-76.79757 -6.0634,-6.21366 -12.19228,-12.06366 -13.61972,-12.999998 -1.42743,-0.936337 -6.53743,-4.349243 -11.35553,-7.584235 -26.32826,-17.677424 -55.92296,-25.712221 -89.47165,-24.291059 -20.17228,0.854521 -37.42183,4.778853 -53.78711,12.236753 -4.12844,1.881391 -8.02018,3.127029 -8.64831,2.768085 -0.62813,-0.358945 -0.79894,-0.274868 -0.37958,0.186838 0.41936,0.461705 -2.19031,2.552486 -5.79926,4.646179 -3.60896,2.093693 -8.50733,5.145319 -10.88528,6.781389 -2.37795,1.636071 -4.71828,2.654937 -5.20074,2.264146 -0.48245,-0.39079 -0.57001,-0.328351 -0.19457,0.138755 0.37543,0.467105 -1.87457,2.995511 -5,5.618679 -3.12544,2.623168 -6.76053,5.939618 -8.07798,7.369898 -1.31745,1.43027 -2.89245,2.31722 -3.5,1.97099 -0.60755,-0.34622 -0.77936,-0.26958 -0.3818,0.17033 0.39756,0.43991 -1.57877,3.31817 -4.39186,6.39613 -2.81308,3.07796 -6.23078,7.28281 -7.59487,9.34409 -1.3641,2.06129 -2.94479,3.46065 -3.51265,3.10969 -0.56786,-0.35096 -0.73677,-0.15964 -0.37535,0.42514 0.36142,0.58479 -0.91905,3.45656 -2.84549,6.38171 -1.92644,2.92515 -3.50262,5.69277 -3.50262,6.15027 0,0.4575 -0.39919,0.58511 -0.8871,0.28357 -0.4879,-0.30154 -0.84584,0.009 -0.79542,0.69098 0.0504,0.68158 -1.78307,5.18386 -4.0744,10.00506 -4.97373,10.46524 -8.4171,21.03722 -11.38696,34.96074 -3.177858,14.89868 -3.194967,40.70742 -0.0375,56.53629 4.03086,20.20715 11.64735,38.7182 22.91043,55.68127 3.67227,5.53073 7.26053,10.65052 7.9739,11.37731 1.03559,1.05507 1.30417,14.66066 1.33247,67.5 0.0289,53.95221 0.26942,65.75709 1.30196,63.89721 0.6966,-1.25475 1.6528,-1.92975 2.12489,-1.5 z m 2.61379,-73.51833 c -0.0646,-40.15443 0.13429,-47.17889 1.31653,-46.5 3.08141,1.76947 14.40864,13.17028 13.78061,13.87013 -0.37027,0.41262 -0.15225,0.45218 0.48448,0.0879 0.63674,-0.36426 3.436,1.13859 6.22059,3.33968 2.78458,2.20108 5.41361,4.01628 5.84229,4.03377 0.42868,0.0175 1.56691,0.62959 2.52939,1.36022 1.79729,1.36434 1.31006,2.78066 -7.26144,21.10798 -0.51446,1.1 -4.02492,8.85992 -7.80103,17.24426 -3.77611,8.38434 -7.23521,14.90934 -7.6869,14.5 -0.45169,-0.40934 -0.52556,-0.22708 -0.16416,0.40502 0.3614,0.6321 -1.10721,4.9071 -3.26359,9.5 l -3.92069,8.35072 -0.0761,-47.29969 z m 204.06014,13.20928 c -17.90921,-39.52765 -16.8116,-36.94503 -15.30616,-36.01462 0.64347,0.39769 1.16994,0.31253 1.16994,-0.18924 0,-0.50176 3.2625,-3.07751 7.25,-5.72388 6.86964,-4.55914 10.25355,-7.37065 18.63387,-15.48185 l 3.61613,-3.5 0.2681,23.75 c 0.14745,13.0625 0.14745,34.39681 0,47.40959 L 359.5,410.31918 344.13622,376.40959 z M 247.56208,355.10045 C 246.79662,353.86191 225,305.81015 225,305.36119 225,305.16254 236.25,305 250,305 c 13.75,0 25,0.24246 25,0.5388 0,1.81084 -7.41489,16.32282 -8.11809,15.88822 -0.47245,-0.29199 -0.63034,0.065 -0.35087,0.79328 0.27948,0.7283 -0.54724,3.56417 -1.83714,6.30194 -1.28991,2.73777 -4.56122,10.02684 -7.26959,16.19794 -4.09849,9.33853 -5.29174,11.22519 -7.11529,11.25 -1.20504,0.0164 -2.44116,-0.37498 -2.74694,-0.86973 z M 225.5,353.49232 c -16.44925,-3.03442 -29.08111,-7.44439 -43.42657,-15.16086 -9.36269,-5.03622 -11.48836,-6.44647 -21.38599,-14.18831 -8.81197,-6.89265 -15.89962,-13.99082 -15.16192,-15.18443 0.31809,-0.5147 -0.008,-0.71064 -0.72564,-0.43542 -0.7172,0.27521 -1.86938,-0.40494 -2.56041,-1.51146 C 140.98885,305.00928 141.15868,305 179.04842,305 l 38.06537,0 3.47181,7.75 c 1.90949,4.2625 3.89138,8.65 4.4042,9.75 4.97591,10.67345 14.0102,31.14069 14.0102,31.74019 0,1.06271 -5.26663,0.77095 -13.5,-0.74787 z m 35.5,0.83872 c 0,-0.768 12.59851,-29.16893 19.99773,-45.08104 l 1.97628,-4.25 38.08109,0 38.08109,0 -2.01521,2.8301 c -4.99991,7.02173 -30.14196,26.893 -32.32175,25.54582 -0.72088,-0.44553 -0.82213,-0.222 -0.28969,0.63951 0.59931,0.96971 0.35895,1.14808 -0.89743,0.66596 -1.04291,-0.4002 -1.47013,-0.26068 -1.08919,0.3557 0.79742,1.29025 -17.4206,9.98783 -28.07438,13.40318 C 280.74549,352.83314 261,356.31061 261,354.33104 z M 140,217.33333 c 0,-44.91666 0.16584,-81.47916 0.36854,-81.25 0.20269,0.22917 4.21233,8.96667 8.91032,19.41667 11.27898,25.08852 37.51688,82.94495 42.09526,92.82303 1.99423,4.30267 3.62588,7.97506 3.62588,8.16087 0,0.1858 1.53221,3.64044 3.4049,7.67697 9.47116,20.41468 13.89411,30.45876 13.91041,31.58913 0.01,0.6875 0.39302,1.25 0.85136,1.25 0.45833,0 0.83333,0.45 0.83333,1 0,0.64865 -13,1 -37,1 l -37,0 0,-81.66667 z m 81.15218,79.93217 c -0.51412,-0.97103 -3.95153,-8.5155 -7.63867,-16.7655 -3.68714,-8.25 -9.07784,-20.175 -11.97933,-26.5 -13.59961,-29.64598 -23.44244,-51.63473 -23.7244,-53 -0.17038,-0.825 -0.56962,-1.725 -0.8872,-2 -0.50462,-0.43695 -30.2606,-65.62551 -34.9717,-76.615 l -1.76407,-4.115 8.1566,-8.00934 c 9.91116,-9.73225 19.6435,-17.367871 21.0897,-16.546186 0.58679,0.333397 0.71311,0.217753 0.28072,-0.256987 -1.63086,-1.790575 21.09338,-13.651837 34.97079,-18.253538 17.15439,-5.688334 23.93755,-6.687375 45.31538,-6.674166 14.85262,0.0092 21.40662,0.430376 27.5,1.767317 28.46987,6.246535 52.10912,18.68477 72.09388,37.93355 l 10.25781,9.88005 -1.52953,3.69465 c -0.84125,2.03206 -3.28288,7.43376 -5.42585,12.00378 C 350.75334,138.37915 349,142.29004 349,142.5 c 0,0.20996 -1.74652,4.12085 -3.88115,8.69087 -2.13463,4.57002 -9.16348,20.00913 -15.61967,34.30913 -6.45619,14.3 -17.27338,38.15 -24.0382,53 -6.76482,14.85 -15.64998,34.425 -19.7448,43.5 l -7.44512,16.5 -28.09205,0.2655 c -25.98629,0.2456 -28.16212,0.13316 -29.02683,-1.5 z M 286,298.66926 c 0,-0.18191 6.1303,-13.79441 13.62288,-30.25 7.49259,-16.4556 15.32158,-33.74426 17.39777,-38.41926 2.07619,-4.675 5.84589,-12.90473 8.37712,-18.28828 C 327.929,206.32816 330,201.694 330,201.41357 c 0,-0.28042 2.025,-4.81428 4.5,-10.07524 2.475,-5.26096 4.5,-9.69461 4.5,-9.85256 0,-0.15795 1.73616,-4.04436 3.85814,-8.63648 2.12197,-4.59211 6.68574,-14.64929 10.1417,-22.34929 3.45596,-7.7 6.4448,-14.1875 6.64186,-14.41667 0.19707,-0.22916 0.3583,36.33334 0.3583,81.25 L 360,299 l -37,0 c -20.35,0 -37,-0.14884 -37,-0.33074 z M 126.8195,285.75 c -9.87655,-17.24113 -14.40494,-28.97478 -18.42825,-47.75 -2.59516,-12.11063 -2.61047,-40.02446 -0.0288,-52.5 3.84863,-18.59786 10.94294,-36.32388 20.99317,-52.45402 L 134,125.59197 l 0,85.70401 C 134,258.43319 133.83441,297 133.63202,297 c -0.20238,0 -3.26802,-5.0625 -6.81252,-11.25 z M 366,211.27586 l 0,-85.72413 4.45994,7.16666 c 10.21215,16.40986 16.82587,32.54827 20.73371,50.5932 2.9476,13.6109 3.18849,41.72817 0.46854,54.68841 -2.0934,9.97477 -5.84764,22.07557 -9.46256,30.5 -2.50359,5.83453 -15.09418,28.5 -15.83165,28.5 C 366.16559,297 366,258.42414 366,211.27586 z M 236.44593,429 c 0.3839,-3.575 0.92093,-7.2875 1.19342,-8.25 0.43014,-1.51938 -0.25292,-1.75 -5.18325,-1.75 l -5.67868,0 0.57641,3.25 c 1.07599,6.06677 1.97167,14.24787 1.61486,14.75 -0.19541,0.275 0.96919,0.73838 2.58801,1.02973 3.53646,0.63649 3.92913,-0.0887 4.88923,-9.02973 z m -41.6584,-0.75 0.28752,-9.25 -3.03752,0 -3.03753,0 0,7 0,7 -5,0 -5,0 0,-7 0,-7 -3,0 -3,0 0,8.3 c 0,5.24708 0.45367,8.75367 1.2334,9.5334 0.84861,0.84861 4.20231,1.14498 10.75,0.95 L 194.5,437.5 l 0.28753,-9.25 z m 26.04606,2 c 1.74959,-11.49458 1.91867,-11.00599 -3.94619,-11.40349 l -5.11259,-0.34651 0.64043,6.5 c 1.19509,12.12941 1.49799,13 4.52303,13 2.61917,0 2.75762,-0.27544 3.89532,-7.75 z m 52.95243,-1.88639 0.28602,-9.13639 -3.33947,-0.38986 -3.33947,-0.38987 0.0534,7.02626 0.0534,7.02625 -3.75,0.31037 c -3.65887,0.30282 -3.75,0.22774 -3.75,-3.08949 0,-3.35744 -0.21484,-3.58163 -6.25,-6.52213 -1.29663,-0.63175 -0.8367,12.31455 0.48442,13.63567 0.84303,0.84303 4.09295,1.14425 10.25,0.95 L 273.5,437.5 l 0.28602,-9.13639 z M 302,435.5 c 0,-2.33333 -0.33333,-2.5 -5,-2.5 l -5,0 0,-7 0,-7 -3.5,0 -3.5,0 0,9.5 0,9.5 8.5,0 c 8.4,0 8.5,-0.0294 8.5,-2.5 z m 15.87844,-5.04085 C 319.54088,419.28167 319.49471,419 316,419 c -1.72267,0 -3.00851,0.53222 -3.01999,1.25 -0.011,0.6875 -0.62366,4.9625 -1.36147,9.5 l -1.34147,8.25 3.2399,0 3.23991,0 1.12156,-7.54085 z M 331.37605,430.25 c -0.69854,-4.2625 -1.29392,-8.5375 -1.32306,-9.5 -0.0396,-1.30651 -0.89877,-1.75 -3.39037,-1.75 l -3.33738,0 1.31578,8.75 c 0.72368,4.8125 1.3255,9.0875 1.33738,9.5 0.0119,0.4125 1.51698,0.75 3.34466,0.75 l 3.32306,0 -1.27007,-7.75 z M 261.08112,401.68112 C 260.48651,401.08651 260,398.215 260,395.3 l 0,-5.3 4,0 c 3.7701,0 4,0.17095 4,2.97432 0,2.27563 0.68629,3.32921 2.92152,4.48509 l 2.92151,1.51078 0.32849,-7.36501 0.32848,-7.36502 -9.33553,-0.17154 c -5.91772,-0.10874 -9.85338,0.25824 -10.75,1.00236 -0.97077,0.80567 -1.41447,3.35194 -1.41447,8.11721 0,9.06073 0.81993,10.54798 5.51309,10.00007 2.61532,-0.30532 3.34286,-0.73231 2.56803,-1.50714 z M 179,396.5 l 0,-6.5 5,0 5,0 0,6.5 0,6.5 3.03753,0 3.03752,0 -0.28752,-9.25 L 194.5,384.5 186,384.20495 c -13.41203,-0.46557 -13,-0.77662 -13,9.8141 l 0,8.98095 3,0 3,0 0,-6.5 z m 35.39026,-2.75 c -0.67966,-5.0875 -1.27051,-9.3625 -1.313,-9.5 -0.0425,-0.1375 -1.47835,-0.25 -3.1908,-0.25 -3.08912,0 -3.10891,0.0333 -2.52202,4.25 0.32533,2.3375 0.8844,6.6125 1.24237,9.5 0.63199,5.09788 0.74312,5.25 3.83502,5.25 l 3.18417,0 -1.23574,-9.25 z m 15.61102,8 c 7e-4,-0.6875 -0.51749,-4.9625 -1.15154,-9.5 -1.12897,-8.07933 -1.21035,-8.25 -3.93389,-8.25 -3.07821,0 -3.45762,0.7291 -4.42323,8.5 -0.34171,2.75 -0.85309,6.2375 -1.13641,7.75 -0.51193,2.73296 -0.48055,2.75 5.06433,2.75 3.79622,0 5.57987,-0.39951 5.58074,-1.25 z m 10.34288,-1.72079 c 0.32678,-1.63393 0.89518,-5.90893 1.26309,-9.5 L 242.27619,384 l -3.02455,0 c -3.30395,0 -3.0727,-0.65445 -4.85845,13.75 l -0.65085,5.25 3.00383,0 c 2.53103,0 3.09735,-0.4676 3.59799,-2.97079 z M 292,393.5 l 0,-9.5 -3.5,0 -3.5,0 0,9.5 0,9.5 3.5,0 3.5,0 0,-9.5 z m 35.383,8.0557 c -0.30483,-0.79436 -1.09733,-4.95686 -1.76112,-9.25 -1.18855,-7.68707 -1.25135,-7.8057 -4.13229,-7.8057 -2.86664,0 -2.94963,0.15066 -4.13136,7.5 -1.89191,11.76605 -2.21298,11 4.61039,11 4.79228,0 5.85938,-0.28465 5.41438,-1.4443 z"
       id="path3025"
       inkscape:connector-curvature="0" />
  </g>
</svg>
