<?xml version="1.0" encoding="UTF-8" standalone="no"?>
<svg
   xmlns:dc="http://purl.org/dc/elements/1.1/"
   xmlns:cc="http://creativecommons.org/ns#"
   xmlns:rdf="http://www.w3.org/1999/02/22-rdf-syntax-ns#"
   xmlns:svg="http://www.w3.org/2000/svg"
   xmlns="http://www.w3.org/2000/svg"
   xmlns:sodipodi="http://sodipodi.sourceforge.net/DTD/sodipodi-0.dtd"
   xmlns:inkscape="http://www.inkscape.org/namespaces/inkscape"
   width="1792"
   height="1792"
   viewBox="0 0 1792 1792"
   id="svg4200"
   version="1.1"
   inkscape:version="0.91 r13725"
   sodipodi:docname="bed.svg">
  <metadata
     id="metadata4208">
    <rdf:RDF>
      <cc:Work
         rdf:about="">
        <dc:format>image/svg+xml</dc:format>
        <dc:type
           rdf:resource="http://purl.org/dc/dcmitype/StillImage" />
      </cc:Work>
    </rdf:RDF>
  </metadata>
  <defs
     id="defs4206" />
  <sodipodi:namedview
     pagecolor="#ffffff"
     bordercolor="#666666"
     borderopacity="1"
     objecttolerance="10"
     gridtolerance="10"
     guidetolerance="10"
     inkscape:pageopacity="0"
     inkscape:pageshadow="2"
     inkscape:window-width="1280"
     inkscape:window-height="962"
     id="namedview4204"
     showgrid="false"
     inkscape:zoom="0.52678571"
     inkscape:cx="1001.8339"
     inkscape:cy="837.57965"
     inkscape:window-x="-8"
     inkscape:window-y="-8"
     inkscape:window-maximized="1"
     inkscape:current-layer="svg4200" />
  <path
     style="color:#000000;font-style:normal;font-variant:normal;font-weight:normal;font-stretch:normal;font-size:medium;line-height:normal;font-family:sans-serif;text-indent:0;text-align:start;text-decoration:none;text-decoration-line:none;text-decoration-style:solid;text-decoration-color:#000000;letter-spacing:normal;word-spacing:normal;text-transform:none;direction:ltr;block-progression:tb;writing-mode:lr-tb;baseline-shift:baseline;text-anchor:start;white-space:normal;clip-rule:nonzero;display:inline;overflow:visible;visibility:visible;opacity:1;isolation:auto;mix-blend-mode:normal;color-interpolation:sRGB;color-interpolation-filters:linearRGB;solid-color:#000000;solid-opacity:1;fill-opacity:1;fill-rule:nonzero;stroke:none;stroke-width:1;stroke-linecap:butt;stroke-linejoin:miter;stroke-miterlimit:4;stroke-dasharray:none;stroke-dashoffset:0;stroke-opacity:1;color-rendering:auto;image-rendering:auto;shape-rendering:auto;text-rendering:auto;enable-background:accumulate"
     d="m 74.257812,362.88477 c -14.910342,0 -27.860396,5.46977 -38.748046,16.35742 -10.887651,10.88765 -16.355469,23.83574 -16.355469,38.74609 l 0,1037.97262 219.414063,0 0,-218.414 1309.49414,0 0,218.414 219.4141,0 0,-382.7265 c 0,-14.9104 -5.4679,-27.8585 -16.3555,-38.7461 -10.8876,-10.8877 -23.8377,-16.3574 -38.7481,-16.3574 l -1473.80464,0 0,-600.14262 c 0,-14.91035 -5.46781,-27.85844 -16.35547,-38.74609 -10.88765,-10.88765 -23.8377,-16.35742 -38.74805,-16.35742 l -109.207028,0 z m 0,1 109.207028,0 c 14.66676,0 27.31269,5.33807 38.03907,16.06445 10.72638,10.72638 16.06445,23.3723 16.06445,38.03906 l 0,601.14262 0.5,0 1474.30464,0 c 14.6668,0 27.3147,5.338 38.0411,16.0644 10.7263,10.7264 16.0625,23.3723 16.0625,38.0391 l 0,381.7265 -217.4141,0 0,-218.414 -1311.49414,0 0,218.414 -217.414063,0 0,-1036.97262 c 0,-14.66676 5.336119,-27.31268 16.0625,-38.03906 10.72638,-10.72638 23.374262,-16.06445 38.041015,-16.06445 z M 511.08789,526.69531 c -60.4097,0 -112.03675,21.39417 -154.7793,64.13672 -42.74255,42.74256 -64.13671,94.3696 -64.13671,154.7793 0,60.4097 21.39416,112.03674 64.13671,154.77929 42.74255,42.74256 94.3696,64.13672 154.7793,64.13672 60.4097,0 112.0387,-21.39416 154.78125,-64.13672 42.74256,-42.74255 64.13477,-94.36959 64.13477,-154.77929 0,-60.4097 -21.39221,-112.03674 -64.13477,-154.7793 -42.74255,-42.74255 -94.37155,-64.13672 -154.78125,-64.13672 z m 0,1 c 60.17385,0 111.49823,21.26776 154.07422,63.84375 42.57599,42.57599 63.8418,93.89842 63.8418,154.07227 0,60.17385 -21.26581,111.49627 -63.8418,154.07226 -42.57599,42.576 -93.90037,63.84375 -154.07422,63.84375 -60.17385,0 -111.49628,-21.26775 -154.07227,-63.84375 -42.57599,-42.57599 -63.84374,-93.89841 -63.84374,-154.07226 0,-60.17385 21.26775,-111.49628 63.84374,-154.07227 42.57599,-42.57599 93.89842,-63.84375 154.07227,-63.84375 z m 327.62305,53.60547 c -14.91034,0 -27.85844,5.46782 -38.7461,16.35547 -10.88764,10.88765 -16.35742,23.83771 -16.35742,38.74805 l 0,328.12304 983.86918,0 0,-0.5 0,-54.60351 c 0,-90.55559 -32.0568,-167.92195 -96.1289,-231.99414 -64.0723,-64.0722 -141.4386,-96.12891 -231.9942,-96.12891 l -600.64256,0 z m 0,1 600.64256,0 c 90.3198,0 167.3815,31.93031 231.2871,95.83594 63.9056,63.90562 95.836,140.96737 95.836,231.28711 l 0,54.10351 -981.86918,0 0,-327.12304 c 0,-14.66675 5.33808,-27.31464 16.06446,-38.04102 10.72638,-10.72638 23.37231,-16.0625 38.03906,-16.0625 z"
     id="path4202"
     inkscape:connector-curvature="0" />
  <path
     style="fill:#000000"
     d="m 476.76041,960.0083 c -45.64506,-7.09065 -84.26148,-27.1135 -118.68884,-61.54085 -37.77737,-37.77738 -57.59696,-79.24253 -62.81314,-131.41321 -5.00769,-50.08551 6.78124,-99.0684 33.51207,-139.24237 33.85362,-50.87886 86.02716,-85.84101 143.43631,-96.11849 20.01108,-3.58242 63.65698,-3.04523 82.57627,1.01634 43.80126,9.40321 77.46594,27.81656 109.22058,59.73967 33.5556,33.73362 52.18241,68.58473 60.95733,114.05232 3.87077,20.05654 2.89696,66.05585 -1.84043,86.93512 -13.53484,59.65258 -52.89853,111.3993 -109.10867,143.43202 -37.5573,21.40295 -90.72636,30.36681 -137.25148,23.13945 z"
     id="path4212"
     inkscape:connector-curvature="0" />
  <path
     style="opacity:1;fill:#8b4513"
     d="m 20.868037,930.02713 0.491313,-524.40678 4.302553,-8.73193 c 5.190815,-10.53464 15.760801,-21.50073 26.070329,-27.0473 7.375538,-3.96806 9.579565,-4.08518 76.881358,-4.08518 67.77762,0 69.45849,0.0911 77.10245,4.18045 12.00786,6.42389 18.41906,12.60477 24.54429,23.66253 l 5.6075,10.12312 0.49707,308 0.49707,307.99996 741.74022,0.079 c 694.65671,0.074 742.30971,0.2848 750.71151,3.322 12.4548,4.5024 24.8122,15.4825 30.6828,27.2633 l 4.9561,9.9456 0,197.051 0,197.051 -107.2543,0 -107.2542,0 0,-109.1525 0,-109.1526 -656.81356,0 -656.81356,0 0,109.1526 0,109.1525 -108.22013,0 -108.220127,0 0.491314,-524.40677 z"
     id="path4224"
     inkscape:connector-curvature="0" />
  <path
     style="opacity:1;fill:#000000"
     d="m 785.86231,792.40001 0.51399,-170.37288 4.18045,-7.81432 c 6.42389,-12.00786 12.60477,-18.41907 23.66252,-24.54428 l 10.12313,-5.6075 325.5593,0 c 308.4369,0 326.6066,0.18488 345.4711,3.51518 69.9058,12.34101 123.7163,40.90541 175.6137,93.22152 26.4354,26.64876 43.7318,50.11111 59.5324,80.75482 26.0568,50.53486 34.3392,89.04264 34.3989,159.93221 l 0.035,41.28813 -489.8021,0 -489.80218,0 0.51399,-170.37288 z"
     id="path4226"
     inkscape:connector-curvature="0" />
</svg>
