<?xml version="1.0" encoding="UTF-8" standalone="no"?>
<!-- Created with Inkscape (http://www.inkscape.org/) -->

<svg
   xmlns:dc="http://purl.org/dc/elements/1.1/"
   xmlns:cc="http://creativecommons.org/ns#"
   xmlns:rdf="http://www.w3.org/1999/02/22-rdf-syntax-ns#"
   xmlns:svg="http://www.w3.org/2000/svg"
   xmlns="http://www.w3.org/2000/svg"
   xmlns:sodipodi="http://sodipodi.sourceforge.net/DTD/sodipodi-0.dtd"
   xmlns:inkscape="http://www.inkscape.org/namespaces/inkscape"
   width="698.29803"
   height="736.86316"
   id="svg3320"
   version="1.1"
   inkscape:version="0.48.3.1 r9886"
   sodipodi:docname="New document 14">
  <defs
     id="defs3322" />
  <sodipodi:namedview
     id="base"
     pagecolor="#ffffff"
     bordercolor="#666666"
     borderopacity="1.0"
     inkscape:pageopacity="0.0"
     inkscape:pageshadow="2"
     inkscape:zoom="0.35"
     inkscape:cx="348.43472"
     inkscape:cy="346.68191"
     inkscape:document-units="px"
     inkscape:current-layer="layer1"
     showgrid="false"
     fit-margin-top="0"
     fit-margin-left="0"
     fit-margin-right="0"
     fit-margin-bottom="0"
     inkscape:window-width="1920"
     inkscape:window-height="993"
     inkscape:window-x="0"
     inkscape:window-y="27"
     inkscape:window-maximized="1" />
  <metadata
     id="metadata3325">
    <rdf:RDF>
      <cc:Work
         rdf:about="">
        <dc:format>image/svg+xml</dc:format>
        <dc:type
           rdf:resource="http://purl.org/dc/dcmitype/StillImage" />
        <dc:title></dc:title>
      </cc:Work>
    </rdf:RDF>
  </metadata>
  <g
     inkscape:label="Layer 1"
     inkscape:groupmode="layer"
     id="layer1"
     transform="translate(-26.565284,-142.18095)">
    <g
       id="g3337"
       transform="matrix(3.6259451,0,0,3.6259451,33.839453,134.27295)">
      <path
         sodipodi:nodetypes="cscssssssscccccsssccscsssscscsscscsssccssscsscscsscscssssssssssscc"
         inkscape:connector-curvature="0"
         id="path3302"
         d="m 84.113836,205.33013 c -5.19295,-0.32516 -11.05604,-1.0274 -14.67954,-1.75821 -5.27039,-1.06297 -9.94322,-2.31561 -10.20236,-2.73493 -0.11665,-0.18876 0.83975,-3.64802 2.12536,-7.68724 1.28558,-4.03922 3.33664,-10.51482 4.5579,-14.39022 6.46374,-20.51156 10.79784,-31.39038 14.45943,-36.29377 3.22101,-4.31341 9.19534,-8.04436 19.59312,-12.23585 6.814524,-2.74701 9.251284,-3.05127 14.460454,-1.80558 2.20882,0.52822 4.00465,1.22205 4.86867,1.88108 4.4142,3.36687 22.7374,15.07192 31.10247,19.86859 2.54731,1.46066 4.72486,2.89913 4.839,3.1966 0.31344,0.81682 -1.63326,4.49582 -3.50269,6.61959 -0.91154,1.03559 -3.24375,3.19873 -5.18262,4.80698 -1.93892,1.60824 -3.58095,3.06445 -3.64895,3.23602 -0.19847,0.50059 2.604,-0.0599 6.10755,-1.2216 6.93705,-2.30009 13.81854,-7.85506 17.70823,-14.29462 5.81048,-9.6195 6.54214,-19.75672 2.09733,-29.05729 -2.19386,-4.59058 -9.52342,-13.08663 -22.12673,-25.648199 l -8.16456,-8.13752 0.41964,-3.76365 c 1.29787,-11.63904 -3.24171,-24.28516 -11.87427,-33.07883 -2.95148,-3.00658 -7.79789,-7.02564 -9.02357,-7.48315 -0.41087,-0.15336 -0.59149,-0.45649 -0.42884,-0.71967 0.17138,-0.2773 1.25994,0.73335 0.99321,0.8982 -0.24055,0.14867 -2.34212,-1.2904 -3.26517,-1.87478 -2.67168,-1.69145 -8.47569,-4.28992 -13.29035,-5.95008 -4.577394,-1.57835 -11.581894,-3.42149 -11.877864,-3.12551 -0.092,0.092 1.07532,1.09725 2.59413,2.23382 1.5188,1.13658 2.68408,2.14387 2.58951,2.23842 -0.0945,0.0946 -1.65124,-0.60881 -3.45933,-1.56302 -4.80303,-2.53477 -10.18149,-3.97447 -16.31672,-4.36766 l -3.4118,-0.21864 3.39779,1.32759 c 2.92369,1.14235 7.71936,3.7864 6.89237,3.80005 -0.15348,0.002 -1.16328,-0.34391 -2.24393,-0.76987 -6.60591,-2.60381 -16.12996,-4.04502 -21.69249,-3.28259 -2.20506,0.30223 -2.33777,0.74196 -0.3213,1.0644 1.51195,0.24177 4.92207,1.851 5.87263,2.77125 0.40911,0.39609 -0.0403,0.38746 -2.153,-0.0413 -1.46854,-0.29806 -5.66469,-0.6452 -9.32479,-0.77143 -7.20574,-0.2485 -13.07744,0.32436 -19.17474,1.87072 -4.43114,1.12382 -4.82949,1.48607 -1.64962,1.50028 2.46068,0.011 7.63512,0.91997 8.7941,1.54482 0.273,0.14717 -1.73046,0.48847 -4.45209,0.75844 -6.80473,0.675 -12.5455,1.76372 -17.18274,3.25865 l -3.91454,1.26196 3.71881,0.45378 c 2.04535,0.24958 3.61751,0.47843 3.49369,0.50856 -0.12382,0.0301 -2.18579,0.40784 -4.58216,0.83934 -4.90309,0.88288 -11.7704203,3.011 -13.8060103,4.27835 l -1.35088,0.84105 2.42332,-0.25973 c 1.33283,-0.14284 3.09438,-0.12798 3.91455,0.033 1.4579503,0.28622 1.4120103,0.31298 -2.05947,1.19921 -1.95288,0.49855 -4.72731,1.34934 -6.16540999,1.89064 -1.43809,0.54128 -2.61471001,0.91023 -2.61471001,0.81987 0,-0.59876 4.41092,-8.00305 6.9938,-11.73998 C 21.217026,22.575711 46.188706,7.0656914 74.447456,2.9147114 c 6.77768,-0.99558 22.44956,-0.97398 29.043384,0.04 17.45711,2.68462 32.88492,9.2096196 47.17027,19.9500796 7.92268,5.95671 17.68368,16.43983 23.19696,24.91318 12.65326,19.44671 18.31487,41.83664 16.3325,64.589989 -2.96989,34.08777 -22.37237,63.77012 -52.7142,80.64326 -10.19888,5.67162 -22.37984,9.66738 -34.57271,11.34098 -5.267374,0.72301 -14.701194,1.19389 -18.789824,0.93789 z"
         style="fill:#aa0000" />
      <path
         id="path3290"
         d="m 121.75356,88.523411 c -4.03891,-0.849 -6.05936,-3.18238 -7.84604,-9.06123 -0.67639,-2.22564 -1.61162,-4.8099 -2.07819,-5.74279 -1.56962,-3.13809 -5.17996,-5.96526 -8.898,-6.96775 l -1.78922,-0.48242 1.56582,-0.0242 c 2.7403,-0.0424 6.87445,1.43916 9.58946,3.43665 2.06825,1.52162 6.60466,6.15614 9.22142,9.42084 3.72488,4.64718 5.73359,6.75196 7.53479,7.89515 0.92622,0.58786 1.53521,1.16082 1.3533,1.27325 -0.67002,0.4141 -7.00524,0.59899 -8.65334,0.25254 z"
         style="fill:#aa0000"
         inkscape:connector-curvature="0" />
    </g>
  </g>
</svg>
