<?xml version="1.0" encoding="UTF-8" standalone="no"?>
<!-- Created with Inkscape (http://www.inkscape.org/) -->

<svg
   xmlns:dc="http://purl.org/dc/elements/1.1/"
   xmlns:cc="http://creativecommons.org/ns#"
   xmlns:rdf="http://www.w3.org/1999/02/22-rdf-syntax-ns#"
   xmlns:svg="http://www.w3.org/2000/svg"
   xmlns="http://www.w3.org/2000/svg"
   xmlns:sodipodi="http://sodipodi.sourceforge.net/DTD/sodipodi-0.dtd"
   xmlns:inkscape="http://www.inkscape.org/namespaces/inkscape"
   width="698.85712"
   height="502.99854"
   id="svg3409"
   version="1.1"
   inkscape:version="0.91 r13725"
   sodipodi:docname="pool.svg">
  <defs
     id="defs3411" />
  <sodipodi:namedview
     id="base"
     pagecolor="#ffffff"
     bordercolor="#666666"
     borderopacity="1.0"
     inkscape:pageopacity="0.0"
     inkscape:pageshadow="2"
     inkscape:zoom="0.9899495"
     inkscape:cx="400.61111"
     inkscape:cy="329.99782"
     inkscape:document-units="px"
     inkscape:current-layer="layer1"
     showgrid="false"
     fit-margin-top="0"
     fit-margin-left="0"
     fit-margin-right="0"
     fit-margin-bottom="0"
     inkscape:window-width="1280"
     inkscape:window-height="962"
     inkscape:window-x="-8"
     inkscape:window-y="-8"
     inkscape:window-maximized="1" />
  <metadata
     id="metadata3414">
    <rdf:RDF>
      <cc:Work
         rdf:about="">
        <dc:format>image/svg+xml</dc:format>
        <dc:type
           rdf:resource="http://purl.org/dc/dcmitype/StillImage" />
        <dc:title />
      </cc:Work>
    </rdf:RDF>
  </metadata>
  <g
     inkscape:label="Layer 1"
     inkscape:groupmode="layer"
     id="layer1"
     transform="translate(-30.846251,-230.24633)">
    <path
       style="fill:#0000cd"
       d="m 1.2671814,470.51958 0,-31.8198 4.2931483,-0.0175 c 6.7639993,-0.0276 16.6289163,-2.4616 36.4700393,-8.99822 23.720428,-7.81465 33.734267,-9.5922 49.645465,-8.81253 13.366006,0.65496 23.166876,2.72297 41.416256,8.73896 20.42827,6.73427 28.81078,8.39117 42.4264,8.38606 14.18848,-0.005 20.36865,-1.24746 40.91118,-8.22267 22.28091,-7.56547 28.44239,-8.75173 45.45687,-8.75173 16.85106,0 22.4271,1.05048 46.33445,8.72906 21.69798,6.96896 27.93667,8.18786 42.05389,8.21634 14.19366,0.0286 20.29415,-1.19317 40.91118,-8.19367 22.28091,-7.56547 28.44239,-8.75173 45.45687,-8.75173 16.85106,0 22.4271,1.05048 46.33445,8.72906 21.69798,6.96896 27.93667,8.18786 42.05389,8.21634 14.17286,0.0286 21.04327,-1.323 39.1059,-7.69317 21.57992,-7.61063 29.39654,-9.14935 46.75707,-9.20429 17.56007,-0.0556 22.43454,0.86511 48.21375,9.10642 17.79321,5.68828 29.62995,8.52331 35.58632,8.52331 l 3.57812,0 0,31.9593 0,31.9593 -6.81853,-0.69069 c -8.59351,-0.87048 -15.05592,-2.51245 -34.37268,-8.73341 -23.57188,-7.59132 -33.47133,-9.35824 -48.71236,-8.69451 -14.40639,0.62738 -22.49515,2.40124 -43.52031,9.544 -18.69763,6.35204 -26.15407,7.79615 -39.81728,7.71154 -13.91026,-0.0862 -23.72875,-2.08121 -44.63794,-9.0702 -35.12606,-11.74103 -50.55479,-11.55841 -89.16895,1.05547 -34.98882,11.4296 -48.68776,11.25975 -85.58744,-1.0612 -35.14311,-11.73442 -50.56011,-11.55094 -89.16895,1.0612 -34.99729,11.43237 -48.68423,11.26096 -85.62048,-1.07226 -21.12223,-7.05283 -31.591453,-8.89445 -46.74782,-8.2233 -13.504716,0.59802 -22.918349,2.69712 -43.941636,9.79834 -14.65356,4.94966 -28.445155,8.09603 -35.4876589,8.09603 l -3.4032137,0 0,-31.81981 z"
       id="path4168"
       inkscape:connector-curvature="0"
       transform="translate(30.846251,230.24633)" />
    <path
       style="fill:#000000"
       d="m 332.67109,379.9785 c -3.53571,-0.74598 -12.89511,-3.43895 -20.79866,-5.98438 -30.64739,-9.87037 -45.85805,-12.0949 -64.00132,-9.36006 -9.61265,1.44897 -16.43777,3.27985 -33.4143,8.96361 -10.12233,3.38896 -16.98656,5.2454 -22.23453,6.01336 -9.64175,1.41093 -26.8289,1.43086 -35.39804,0.0411 -7.87282,-1.27689 -29.98147,-8.3286 -32.6207,-10.40462 -1.78856,-1.40688 -1.82708,-1.57449 -0.81265,-3.53618 0.5857,-1.13261 3.07406,-3.49283 5.52969,-5.24491 11.51298,-8.21449 15.2249,-10.31973 143.75051,-81.52932 41.64286,-23.07222 77.07716,-42.72807 78.74291,-43.67968 3.4923,-1.99509 4.32388,-4.11266 3.1516,-8.0254 -1.35568,-4.52486 -7.15373,-15.76591 -24.5422,-47.58146 -33.3964,-61.10519 -39.0592,-72.67434 -41.63748,-85.065747 -1.39352,-6.697321 -0.99529,-11.414993 1.53196,-18.148536 3.55876,-9.48192 11.52992,-20.746738 16.88851,-23.866806 6.67241,-3.885042 40.8613,-11.350287 119.43613,-26.079226 58.67844,-10.99934 127.53955,-23.1855566 141.44624,-25.0314678 8.35203,-1.1086094 16.65789,0.8158485 27.12519,6.2848726 5.78143,3.0207242 14.08777,10.8208622 17.1525,16.1072202 8.98667,15.501085 8.39846,35.405105 -1.47328,49.852907 -5.41693,7.92795 -13.86878,14.422715 -22.05627,16.948993 -11.28362,3.4816 -41.3759,9.795 -93.9801,19.71715 -50.13685,9.45676 -72.0641,13.97325 -74.16638,15.27651 -0.74869,0.46415 -0.38427,1.71788 1.70586,5.86861 5.93711,11.79035 29.24322,54.64577 82.1145,150.99266 34.89781,63.59398 43.41954,79.83193 48.24224,91.92445 1.25184,3.13887 1.25908,3.37705 0.11337,3.72937 -4.10893,1.26354 -16.38667,2.69355 -26.22852,3.05488 -14.18328,0.52071 -17.3311,-0.0558 -39.49047,-7.23228 -25.99512,-8.41873 -39.59302,-10.89426 -56.12046,-10.21684 -13.61559,0.55807 -23.19946,2.8287 -40.20492,9.52545 -18.62711,7.33535 -41.90132,10.02979 -57.75093,6.6858 z"
       id="path4170"
       inkscape:connector-curvature="0"
       transform="translate(30.846251,230.24633)" />
    <path
       style="fill:#000000"
       d="m 581.9568,317.1977 c -17.57893,-4.15172 -33.29481,-12.78705 -44.08103,-24.22102 -5.68395,-6.02528 -8.15875,-9.5607 -11.8584,-16.94051 -5.83772,-11.64468 -8.695,-24.77507 -8.695,-39.95707 0,-38.81399 20.15956,-67.78283 55.13696,-79.23059 48.77205,-15.96262 99.64005,15.40389 107.03858,66.00272 1.30839,8.94816 0.51831,23.71094 -1.73292,32.38014 -6.33733,24.40415 -22.42724,44.09321 -45.0939,55.18097 -12.07762,5.90796 -18.94397,7.53343 -33.21429,7.86286 -9.74296,0.22491 -12.77614,0.0382 -17.5,-1.0775 z"
       id="path4172"
       inkscape:connector-curvature="0"
       transform="translate(30.846251,230.24633)" />
  </g>
</svg>
